<svg width="23" height="22" viewBox="0 0 23 22" fill="none" xmlns="http://www.w3.org/2000/svg">
<path fill-rule="evenodd" clip-rule="evenodd" d="M11.2782 0C5.04701 0 0 5.04701 0 11.2782C0 16.2688 3.22839 20.4841 7.71149 21.9785C8.2754 22.0771 8.48687 21.7388 8.48687 21.4427C8.48687 21.1749 8.47277 20.2867 8.47277 19.3422C5.63912 19.8638 4.90603 18.6514 4.68047 18.017C4.55359 17.6927 4.00377 16.6918 3.52445 16.4239C3.12971 16.2125 2.5658 15.6908 3.51035 15.6767C4.39851 15.6626 5.03291 16.4944 5.24438 16.8328C6.25942 18.5386 7.88066 18.0593 8.52916 17.7632C8.62785 17.0301 8.9239 16.5367 9.24815 16.2548C6.73874 15.9728 4.11655 15 4.11655 10.6861C4.11655 9.45962 4.55359 8.44458 5.27257 7.6551C5.15979 7.37314 4.76505 6.21713 5.38536 4.66637C5.38536 4.66637 6.32991 4.37032 8.48687 5.82239C9.38913 5.56863 10.3478 5.44175 11.3064 5.44175C12.2651 5.44175 13.2237 5.56863 14.126 5.82239C16.2829 4.35622 17.2275 4.66637 17.2275 4.66637C17.8478 6.21713 17.4531 7.37314 17.3403 7.6551C18.0593 8.44458 18.4963 9.44552 18.4963 10.6861C18.4963 15.0141 15.86 15.9728 13.3506 16.2548C13.7594 16.6072 14.1119 17.2839 14.1119 18.3412C14.1119 19.8497 14.0978 21.0621 14.0978 21.4427C14.0978 21.7388 14.3093 22.0912 14.8732 21.9785C17.1121 21.2226 19.0576 19.7836 20.4358 17.8641C21.8141 15.9446 22.5558 13.6413 22.5565 11.2782C22.5565 5.04701 17.5095 0 11.2782 0Z" fill="#242424"/>
</svg>
