<svg width="24" height="24" viewBox="0 0 24 24" fill="none" xmlns="http://www.w3.org/2000/svg">
<path d="M5.46931 7.11819C5.40382 7.19848 5.30215 7.22155 5.21548 7.19267C5.13298 7.16511 5.04289 7.17467 4.97548 7.22966L4.9512 7.24948C4.75761 7.40741 4.82042 7.71359 5.05709 7.78119C5.13275 7.80284 5.21112 7.81372 5.28964 7.81372C5.47634 7.81372 5.66426 7.75194 5.81993 7.625C6.17886 7.33212 6.23267 6.80187 5.93984 6.443C5.74353 6.20225 5.44034 6.09875 5.1537 6.14506C4.93648 6.18008 4.83401 6.43503 4.95772 6.61695C5.02348 6.71366 5.13907 6.76616 5.25448 6.74722C5.27557 6.74375 5.2955 6.74272 5.31218 6.74445C5.38803 6.75209 5.45459 6.79583 5.49251 6.86506C5.53639 6.94522 5.52706 7.04745 5.46931 7.11819Z" fill="#5085A5"/>
<path d="M3.58393 7.25771C3.74058 7.25771 3.86757 7.13072 3.86757 6.97407C3.86757 6.81742 3.74058 6.69043 3.58393 6.69043C3.42728 6.69043 3.30029 6.81742 3.30029 6.97407C3.30029 7.13072 3.42728 7.25771 3.58393 7.25771Z" fill="#5085A5"/>
<mask id="path-3-inside-1_101_977" fill="white">
<path d="M3.4613 9.57962C5.00546 10.5169 6.21521 11.8769 6.95968 13.5123L6.97116 13.5376C7.36622 14.4102 7.54097 15.3766 7.47638 16.3324L7.40476 17.3929C7.27304 17.4932 7.16147 17.6189 7.07733 17.7631C6.96437 17.9566 6.90465 18.1777 6.90465 18.4023L6.90469 18.4161C6.91205 18.7886 7.22129 19.0917 7.59404 19.0917H9.34397C9.39254 19.0917 9.44072 19.0892 9.48863 19.0854C9.5199 19.0891 9.55116 19.0917 9.58177 19.0917H11.2707C11.7408 19.0917 12.1978 18.9324 12.5252 18.654C12.6161 18.5762 12.6961 18.4907 12.7623 18.4007C12.8316 18.3072 12.8881 18.2066 12.9301 18.1021L13.05 17.8043C13.3151 17.146 13.4214 16.4421 13.3623 15.7503C13.3473 15.5745 13.1843 15.4492 13.0101 15.4774C12.8528 15.5028 12.7418 15.6452 12.7557 15.8039C12.8083 16.4036 12.7175 16.9988 12.4847 17.5768L12.3648 17.8746C12.3421 17.9311 12.3111 17.9861 12.272 18.0389C12.2327 18.0924 12.1846 18.1435 12.1298 18.1904C11.9116 18.3759 11.5985 18.4824 11.2707 18.4824H10.6945C10.8589 18.2958 10.9857 18.0743 11.0615 17.8376L11.4472 16.6309C11.5575 16.2853 11.6416 15.9283 11.6975 15.5694C11.7385 15.3032 11.7642 15.0338 11.7745 14.7653C12.1148 14.7357 12.8173 14.7344 13.7555 15.0471C13.9766 15.1207 14.2104 15.2137 14.458 15.312C14.857 15.4705 15.2642 15.6318 15.6691 15.7358C16.2078 16.1172 16.6831 16.5713 17.0883 17.0878L16.7168 17.298C16.3178 17.5238 16.0707 17.9499 16.0731 18.4087C16.0749 18.7868 16.3843 19.0917 16.7625 19.0917H19.0383H19.2625H21.2017C21.4192 19.0917 21.6321 19.0291 21.815 18.9115L21.8314 18.9009C22.1451 18.699 22.3393 18.3557 22.3509 17.9829L22.4134 15.9748C22.4495 15.2478 22.5706 14.5246 22.7734 13.8254C23.0278 12.9473 23.1568 12.0386 23.1568 11.1246C23.1568 9.7749 22.6311 8.50562 21.6764 7.55044C20.7633 6.63732 19.329 6.07004 17.9333 6.07004H16.1341C15.9659 6.07004 15.8296 6.20635 15.8296 6.37454V6.37491C15.8296 6.5431 15.9659 6.67941 16.1341 6.67941H17.9333C19.1733 6.67941 20.4424 7.1783 21.2454 7.98122C22.085 8.82127 22.5474 9.9376 22.5474 11.1246C22.5474 11.9812 22.4265 12.8328 22.1881 13.6558C21.9719 14.4013 21.8429 15.1724 21.8046 15.9475L21.7418 17.964C21.7364 18.1365 21.6466 18.2952 21.5014 18.3887L21.4853 18.3991C21.4007 18.4534 21.3023 18.4824 21.2016 18.4824H19.2624H19.1079C19.1303 18.1805 19.3023 17.9063 19.5682 17.7559L20.2519 17.3688C20.3983 17.2859 20.4498 17.1002 20.367 16.9538L20.3668 16.9535C20.2839 16.8071 20.0981 16.7556 19.9517 16.8385L19.8759 16.8814C19.7716 16.487 19.6312 16.0992 19.4543 15.7235C19.4517 15.7175 19.4482 15.7099 19.4436 15.7012C19.2328 15.2565 18.9721 14.8296 18.6687 14.4325L17.296 12.6354C17.1938 12.5017 17.0027 12.4761 16.869 12.5783C16.7352 12.6804 16.7097 12.8716 16.8118 13.0053L18.1844 14.8023C18.2206 14.8496 18.2558 14.8973 18.2906 14.9454C17.8776 15.0991 17.3428 15.2393 16.4701 15.2393C15.9253 15.2393 15.2937 14.9883 14.6828 14.7457C14.4271 14.644 14.1855 14.548 13.9481 14.469C12.963 14.1406 12.2039 14.1224 11.7795 14.153V11.9982C11.7795 11.8301 11.6432 11.6938 11.475 11.6938H11.4746C11.3065 11.6938 11.1701 11.8301 11.1701 11.9982V14.5005C11.1701 14.825 11.1449 15.1534 11.0951 15.4762C11.0442 15.8037 10.9673 16.1299 10.8666 16.4455L10.4812 17.652C10.4269 17.8214 10.3378 17.9734 10.2165 18.1035C10.1043 18.2236 9.97083 18.3178 9.81933 18.3835C9.66896 18.4491 9.50907 18.4824 9.34402 18.4824H7.59408C7.55007 18.4824 7.51407 18.4464 7.51407 18.4023C7.51407 18.2855 7.54505 18.1707 7.60369 18.0703C7.66266 17.9692 7.74737 17.8855 7.85007 17.8275L8.49502 17.4623C8.62318 17.39 8.75935 17.3363 8.90143 17.3025C9.02166 17.2731 9.14565 17.2582 9.27001 17.2582H9.4104C9.57868 17.2582 9.71508 17.1218 9.71508 16.9535C9.71508 16.7852 9.57868 16.6488 9.4104 16.6488H9.27001C9.09699 16.6488 8.9243 16.6696 8.75841 16.7102C8.56257 16.7569 8.37319 16.8314 8.19511 16.9319L8.0408 17.0192L8.08449 16.3725C8.15602 15.3134 7.96426 14.2531 7.52626 13.2862L7.51435 13.2599C6.85679 11.8153 5.85943 10.5724 4.60177 9.61927L4.87533 9.67374L6.20227 9.49819C6.3691 9.47612 6.48643 9.32302 6.46435 9.15615C6.44227 8.98932 6.28913 8.87199 6.12235 8.89407L4.89544 9.0564L3.17358 8.71355C2.73141 8.62547 2.2974 8.4901 1.88358 8.31123C1.8504 8.29688 1.81871 8.28019 1.78866 8.2614C2.22783 8.08698 2.52474 7.65572 2.52221 7.17657L2.52146 7.03051C2.53379 7.0186 2.54621 7.00683 2.55807 6.99441L2.5734 6.97833L2.79657 6.66291C2.90466 6.51015 3.02944 6.3691 3.17372 6.24994C3.67515 5.83599 4.20671 5.76329 4.51782 5.76329H5.76474C6.69905 5.76329 7.63285 5.87593 8.54021 6.09816L9.77143 6.39966C10.445 6.59462 11.1287 6.6886 11.8053 6.67965L14.7409 6.67941C14.909 6.67937 15.0453 6.54305 15.0453 6.37491V6.37449C15.0453 6.20635 14.909 6.06999 14.7408 6.06999L11.8174 6.07004L11.797 6.07032C11.1791 6.0788 10.5527 5.99199 9.93507 5.81265L8.6851 5.50632C7.73035 5.27255 6.7478 5.15396 5.76469 5.15396H4.51777C4.21613 5.15396 3.91524 5.20632 3.63038 5.30508C3.49665 5.09049 3.26888 4.93768 2.99832 4.91162C2.72096 4.88513 2.45166 4.99426 2.26669 5.21607C2.20285 5.29266 2.15363 5.38112 2.12232 5.47585C2.01854 5.78996 2.10408 6.09971 2.29782 6.31266L2.10277 6.58829C2.03569 6.65419 1.95352 6.70426 1.86404 6.73351L1.40199 6.8844C1.07804 6.99024 0.850131 7.28743 0.843287 7.62821C0.832459 8.16746 1.1483 8.65726 1.64176 8.87058C2.07788 9.05912 2.53463 9.20302 3.00001 9.29958L3.4613 9.57962ZM18.6307 15.4675C18.7272 15.6321 18.8165 15.8 18.8972 15.9711L18.9104 15.9991L18.9108 15.9995C19.0914 16.3861 19.2301 16.7862 19.326 17.1928L19.2681 17.2255C18.8116 17.484 18.5215 17.9612 18.4984 18.4824H16.7625C16.7191 18.4824 16.6826 18.4477 16.6824 18.4043C16.6817 18.1664 16.8101 17.9455 17.0171 17.8284L17.6637 17.4624C17.9 17.3286 18.1669 17.2584 18.4384 17.2584H18.4963C18.6646 17.2584 18.801 17.1219 18.801 16.9537C18.801 16.7854 18.6646 16.649 18.4963 16.649H18.4384C18.1643 16.649 17.8928 16.7016 17.6389 16.8015C17.3764 16.4561 17.0856 16.1358 16.7682 15.8427C17.6129 15.8115 18.1686 15.6496 18.6307 15.4675ZM2.68829 5.72588C2.69419 5.66452 2.72363 5.60916 2.77116 5.56998C2.81874 5.53079 2.87879 5.51241 2.94001 5.51827C2.9903 5.52315 3.03488 5.54429 3.07008 5.57546C2.94305 5.65613 2.82277 5.74702 2.71079 5.84757C2.69307 5.81087 2.68412 5.76938 2.68829 5.72588ZM1.51529 7.71216L1.45669 7.72923C1.45379 7.70148 1.45191 7.67354 1.45247 7.64518C1.45407 7.56179 1.51158 7.48969 1.59094 7.46377L1.87946 7.36955C1.82044 7.53174 1.68722 7.66224 1.51529 7.71216Z"/>
</mask>
<path d="M3.4613 9.57962C5.00546 10.5169 6.21521 11.8769 6.95968 13.5123L6.97116 13.5376C7.36622 14.4102 7.54097 15.3766 7.47638 16.3324L7.40476 17.3929C7.27304 17.4932 7.16147 17.6189 7.07733 17.7631C6.96437 17.9566 6.90465 18.1777 6.90465 18.4023L6.90469 18.4161C6.91205 18.7886 7.22129 19.0917 7.59404 19.0917H9.34397C9.39254 19.0917 9.44072 19.0892 9.48863 19.0854C9.5199 19.0891 9.55116 19.0917 9.58177 19.0917H11.2707C11.7408 19.0917 12.1978 18.9324 12.5252 18.654C12.6161 18.5762 12.6961 18.4907 12.7623 18.4007C12.8316 18.3072 12.8881 18.2066 12.9301 18.1021L13.05 17.8043C13.3151 17.146 13.4214 16.4421 13.3623 15.7503C13.3473 15.5745 13.1843 15.4492 13.0101 15.4774C12.8528 15.5028 12.7418 15.6452 12.7557 15.8039C12.8083 16.4036 12.7175 16.9988 12.4847 17.5768L12.3648 17.8746C12.3421 17.9311 12.3111 17.9861 12.272 18.0389C12.2327 18.0924 12.1846 18.1435 12.1298 18.1904C11.9116 18.3759 11.5985 18.4824 11.2707 18.4824H10.6945C10.8589 18.2958 10.9857 18.0743 11.0615 17.8376L11.4472 16.6309C11.5575 16.2853 11.6416 15.9283 11.6975 15.5694C11.7385 15.3032 11.7642 15.0338 11.7745 14.7653C12.1148 14.7357 12.8173 14.7344 13.7555 15.0471C13.9766 15.1207 14.2104 15.2137 14.458 15.312C14.857 15.4705 15.2642 15.6318 15.6691 15.7358C16.2078 16.1172 16.6831 16.5713 17.0883 17.0878L16.7168 17.298C16.3178 17.5238 16.0707 17.9499 16.0731 18.4087C16.0749 18.7868 16.3843 19.0917 16.7625 19.0917H19.0383H19.2625H21.2017C21.4192 19.0917 21.6321 19.0291 21.815 18.9115L21.8314 18.9009C22.1451 18.699 22.3393 18.3557 22.3509 17.9829L22.4134 15.9748C22.4495 15.2478 22.5706 14.5246 22.7734 13.8254C23.0278 12.9473 23.1568 12.0386 23.1568 11.1246C23.1568 9.7749 22.6311 8.50562 21.6764 7.55044C20.7633 6.63732 19.329 6.07004 17.9333 6.07004H16.1341C15.9659 6.07004 15.8296 6.20635 15.8296 6.37454V6.37491C15.8296 6.5431 15.9659 6.67941 16.1341 6.67941H17.9333C19.1733 6.67941 20.4424 7.1783 21.2454 7.98122C22.085 8.82127 22.5474 9.9376 22.5474 11.1246C22.5474 11.9812 22.4265 12.8328 22.1881 13.6558C21.9719 14.4013 21.8429 15.1724 21.8046 15.9475L21.7418 17.964C21.7364 18.1365 21.6466 18.2952 21.5014 18.3887L21.4853 18.3991C21.4007 18.4534 21.3023 18.4824 21.2016 18.4824H19.2624H19.1079C19.1303 18.1805 19.3023 17.9063 19.5682 17.7559L20.2519 17.3688C20.3983 17.2859 20.4498 17.1002 20.367 16.9538L20.3668 16.9535C20.2839 16.8071 20.0981 16.7556 19.9517 16.8385L19.8759 16.8814C19.7716 16.487 19.6312 16.0992 19.4543 15.7235C19.4517 15.7175 19.4482 15.7099 19.4436 15.7012C19.2328 15.2565 18.9721 14.8296 18.6687 14.4325L17.296 12.6354C17.1938 12.5017 17.0027 12.4761 16.869 12.5783C16.7352 12.6804 16.7097 12.8716 16.8118 13.0053L18.1844 14.8023C18.2206 14.8496 18.2558 14.8973 18.2906 14.9454C17.8776 15.0991 17.3428 15.2393 16.4701 15.2393C15.9253 15.2393 15.2937 14.9883 14.6828 14.7457C14.4271 14.644 14.1855 14.548 13.9481 14.469C12.963 14.1406 12.2039 14.1224 11.7795 14.153V11.9982C11.7795 11.8301 11.6432 11.6938 11.475 11.6938H11.4746C11.3065 11.6938 11.1701 11.8301 11.1701 11.9982V14.5005C11.1701 14.825 11.1449 15.1534 11.0951 15.4762C11.0442 15.8037 10.9673 16.1299 10.8666 16.4455L10.4812 17.652C10.4269 17.8214 10.3378 17.9734 10.2165 18.1035C10.1043 18.2236 9.97083 18.3178 9.81933 18.3835C9.66896 18.4491 9.50907 18.4824 9.34402 18.4824H7.59408C7.55007 18.4824 7.51407 18.4464 7.51407 18.4023C7.51407 18.2855 7.54505 18.1707 7.60369 18.0703C7.66266 17.9692 7.74737 17.8855 7.85007 17.8275L8.49502 17.4623C8.62318 17.39 8.75935 17.3363 8.90143 17.3025C9.02166 17.2731 9.14565 17.2582 9.27001 17.2582H9.4104C9.57868 17.2582 9.71508 17.1218 9.71508 16.9535C9.71508 16.7852 9.57868 16.6488 9.4104 16.6488H9.27001C9.09699 16.6488 8.9243 16.6696 8.75841 16.7102C8.56257 16.7569 8.37319 16.8314 8.19511 16.9319L8.0408 17.0192L8.08449 16.3725C8.15602 15.3134 7.96426 14.2531 7.52626 13.2862L7.51435 13.2599C6.85679 11.8153 5.85943 10.5724 4.60177 9.61927L4.87533 9.67374L6.20227 9.49819C6.3691 9.47612 6.48643 9.32302 6.46435 9.15615C6.44227 8.98932 6.28913 8.87199 6.12235 8.89407L4.89544 9.0564L3.17358 8.71355C2.73141 8.62547 2.2974 8.4901 1.88358 8.31123C1.8504 8.29688 1.81871 8.28019 1.78866 8.2614C2.22783 8.08698 2.52474 7.65572 2.52221 7.17657L2.52146 7.03051C2.53379 7.0186 2.54621 7.00683 2.55807 6.99441L2.5734 6.97833L2.79657 6.66291C2.90466 6.51015 3.02944 6.3691 3.17372 6.24994C3.67515 5.83599 4.20671 5.76329 4.51782 5.76329H5.76474C6.69905 5.76329 7.63285 5.87593 8.54021 6.09816L9.77143 6.39966C10.445 6.59462 11.1287 6.6886 11.8053 6.67965L14.7409 6.67941C14.909 6.67937 15.0453 6.54305 15.0453 6.37491V6.37449C15.0453 6.20635 14.909 6.06999 14.7408 6.06999L11.8174 6.07004L11.797 6.07032C11.1791 6.0788 10.5527 5.99199 9.93507 5.81265L8.6851 5.50632C7.73035 5.27255 6.7478 5.15396 5.76469 5.15396H4.51777C4.21613 5.15396 3.91524 5.20632 3.63038 5.30508C3.49665 5.09049 3.26888 4.93768 2.99832 4.91162C2.72096 4.88513 2.45166 4.99426 2.26669 5.21607C2.20285 5.29266 2.15363 5.38112 2.12232 5.47585C2.01854 5.78996 2.10408 6.09971 2.29782 6.31266L2.10277 6.58829C2.03569 6.65419 1.95352 6.70426 1.86404 6.73351L1.40199 6.8844C1.07804 6.99024 0.850131 7.28743 0.843287 7.62821C0.832459 8.16746 1.1483 8.65726 1.64176 8.87058C2.07788 9.05912 2.53463 9.20302 3.00001 9.29958L3.4613 9.57962ZM18.6307 15.4675C18.7272 15.6321 18.8165 15.8 18.8972 15.9711L18.9104 15.9991L18.9108 15.9995C19.0914 16.3861 19.2301 16.7862 19.326 17.1928L19.2681 17.2255C18.8116 17.484 18.5215 17.9612 18.4984 18.4824H16.7625C16.7191 18.4824 16.6826 18.4477 16.6824 18.4043C16.6817 18.1664 16.8101 17.9455 17.0171 17.8284L17.6637 17.4624C17.9 17.3286 18.1669 17.2584 18.4384 17.2584H18.4963C18.6646 17.2584 18.801 17.1219 18.801 16.9537C18.801 16.7854 18.6646 16.649 18.4963 16.649H18.4384C18.1643 16.649 17.8928 16.7016 17.6389 16.8015C17.3764 16.4561 17.0856 16.1358 16.7682 15.8427C17.6129 15.8115 18.1686 15.6496 18.6307 15.4675ZM2.68829 5.72588C2.69419 5.66452 2.72363 5.60916 2.77116 5.56998C2.81874 5.53079 2.87879 5.51241 2.94001 5.51827C2.9903 5.52315 3.03488 5.54429 3.07008 5.57546C2.94305 5.65613 2.82277 5.74702 2.71079 5.84757C2.69307 5.81087 2.68412 5.76938 2.68829 5.72588ZM1.51529 7.71216L1.45669 7.72923C1.45379 7.70148 1.45191 7.67354 1.45247 7.64518C1.45407 7.56179 1.51158 7.48969 1.59094 7.46377L1.87946 7.36955C1.82044 7.53174 1.68722 7.66224 1.51529 7.71216Z" fill="#5085A5" stroke="#5085A5" stroke-width="10" mask="url(#path-3-inside-1_101_977)"/>
</svg>
