<svg width="24" height="24" viewBox="0 0 24 24" fill="none" xmlns="http://www.w3.org/2000/svg">
<g clip-path="url(#clip0_67_3808)">
<path d="M12 22.5C9.19496 22.5 6.55871 21.408 4.57571 19.4243C1.33421 16.1835 0.564714 11.2688 2.66021 7.19625C2.84996 6.828 3.30146 6.68325 3.67046 6.87225C4.03871 7.06125 4.18421 7.5135 3.99446 7.8825C2.19821 11.3738 2.85746 15.5858 5.63621 18.3638C7.33571 20.064 9.59546 21 12 21C14.4037 21 16.6642 20.064 18.3637 18.3638C20.0632 16.6635 21 14.4037 21 12C21 9.5955 20.064 7.33575 18.3637 5.63625C16.6635 3.93675 14.4045 3 12 3C9.59546 3 7.33571 3.93675 5.63621 5.63625C5.34296 5.9295 4.86896 5.9295 4.57571 5.63625C4.28246 5.343 4.28246 4.869 4.57571 4.57575C6.55871 2.59275 9.19496 1.5 12 1.5C14.805 1.5 17.442 2.59275 19.4242 4.57575C21.408 6.55875 22.5 9.195 22.5 12C22.5 14.8043 21.408 17.4413 19.4242 19.4243C17.442 21.408 14.805 22.5 12 22.5Z" fill="#5085A5"/>
<path d="M12 16.5C11.586 16.5 11.25 16.1647 11.25 15.75V8.25C11.25 7.836 11.586 7.5 12 7.5C12.414 7.5 12.75 7.836 12.75 8.25V15.75C12.75 16.1647 12.414 16.5 12 16.5Z" fill="#5085A5"/>
<path d="M15.75 12.75H8.25C7.836 12.75 7.5 12.414 7.5 12C7.5 11.586 7.836 11.25 8.25 11.25H15.75C16.1647 11.25 16.5 11.586 16.5 12C16.5 12.414 16.1647 12.75 15.75 12.75Z" fill="#5085A5"/>
</g>
<defs>
<clipPath id="clip0_67_3808">
<rect width="24" height="24" fill="white"/>
</clipPath>
</defs>
</svg>
