<svg width="24" height="24" viewBox="0 0 24 24" fill="none" xmlns="http://www.w3.org/2000/svg">
<g clip-path="url(#clip0_67_3819)">
<path fill-rule="evenodd" clip-rule="evenodd" d="M23 12.5C23 18.299 18.299 23 12.5 23C6.70101 23 2 18.299 2 12.5C2 6.70101 6.70101 2 12.5 2C18.299 2 23 6.70101 23 12.5ZM13.025 17.75C12.5903 17.75 12.2375 17.3979 12.2375 16.9625V13.8125H9.08745C8.65275 13.8125 8.29995 13.4597 8.29995 13.025C8.29995 12.5903 8.65275 12.2375 9.08745 12.2375H12.2375V9.08745C12.2375 8.65275 12.5903 8.29995 13.025 8.29995C13.4597 8.29995 13.8125 8.65275 13.8125 9.08745V12.2375H16.9625C17.3979 12.2375 17.75 12.5903 17.75 13.025C17.75 13.4597 17.3979 13.8125 16.9625 13.8125H13.8125V16.9625C13.8125 17.3979 13.4597 17.75 13.025 17.75Z" fill="#5085A5"/>
</g>
<defs>
<clipPath id="clip0_67_3819">
<rect width="24" height="24" fill="white"/>
</clipPath>
</defs>
</svg>
