<svg width="23" height="24" viewBox="0 0 23 24" fill="none" xmlns="http://www.w3.org/2000/svg">
<g clip-path="url(#clip0_67_3792)">
<path d="M7.38958 18.3789C7.76853 18.3789 8.02116 18.0631 8.02116 17.7473L7.57906 8.90524C7.57906 8.52629 7.26327 8.27366 6.94748 8.33682C6.56853 8.33682 6.3159 8.65261 6.37906 8.9684L6.82116 17.7473C6.758 18.0631 7.07379 18.3789 7.38958 18.3789Z" fill="#5085A5"/>
<path d="M15.0948 18.3788C15.1579 18.3788 15.1579 18.3788 15.0948 18.3788C15.4737 18.3788 15.7264 18.1262 15.7264 17.8104L16.1685 9.03148C16.1685 8.65253 15.9158 8.3999 15.6001 8.3999C15.2211 8.3999 14.9685 8.65253 14.9685 8.96832L14.5264 17.6841C14.5264 18.0631 14.779 18.3157 15.0948 18.3788Z" fill="#5085A5"/>
<path d="M11.3684 18.3789C11.7473 18.3789 12 18.1263 12 17.7474V8.90526C12 8.52631 11.7473 8.27368 11.3684 8.27368C10.9894 8.27368 10.7368 8.52631 10.7368 8.90526V17.6842C10.7368 18.0632 10.9894 18.3789 11.3684 18.3789Z" fill="#5085A5"/>
<path d="M22.1053 3.53687H2.96842H2.52632H0.631579C0.252632 3.53687 0 3.7895 0 4.16844C0 4.54739 0.252632 4.80002 0.631579 4.80002H1.95789L3.41053 19.8948C3.53684 21.5369 4.92632 22.8 6.50526 22.8H15.9789C17.6211 22.8 18.9474 21.5369 19.0737 19.8948L20.5263 4.80002H22.1053C22.4842 4.80002 22.7368 4.54739 22.7368 4.16844C22.7368 3.7895 22.4842 3.53687 22.1053 3.53687ZM17.8737 19.7684C17.8105 20.779 16.9895 21.4737 16.0421 21.4737H6.56842C5.62105 21.4737 4.8 20.7158 4.73684 19.7684L3.34737 4.80002H19.3895L17.8737 19.7684Z" fill="#5085A5"/>
<path d="M7.95799 1.26316H15.0948C15.4738 1.26316 15.7264 1.01053 15.7264 0.631579C15.7264 0.252632 15.4738 0 15.0948 0H7.95799C7.57905 0 7.32642 0.252632 7.32642 0.631579C7.32642 1.01053 7.57905 1.26316 7.95799 1.26316Z" fill="#5085A5"/>
</g>
<defs>
<clipPath id="clip0_67_3792">
<rect width="22.7368" height="24" fill="white"/>
</clipPath>
</defs>
</svg>
