<svg width="24" height="24" viewBox="0 0 24 24" fill="none" xmlns="http://www.w3.org/2000/svg">
<path d="M8.82334 11.3659C8.82006 11.3548 8.81687 11.3443 8.81359 11.3334C8.53496 10.4027 8.36654 9.99462 8.15438 9.78813C8.06771 9.72959 8.0072 9.68515 7.97706 9.66251C7.96192 9.65482 7.94663 9.64727 7.93042 9.6401C7.92437 9.63743 7.91781 9.63495 7.91157 9.63232C7.89845 9.62679 7.88504 9.6214 7.87121 9.61615C7.8601 9.61198 7.84871 9.60785 7.83704 9.60377C7.82889 9.60091 7.82049 9.5981 7.81215 9.59534C7.68587 9.55338 7.52781 9.5163 7.32024 9.46976C7.31401 9.46835 7.30829 9.46704 7.30196 9.46563C7.28992 9.46291 7.27707 9.46005 7.26474 9.45729C7.25453 9.45499 7.24445 9.45274 7.23404 9.4504C7.22242 9.44777 7.2106 9.4451 7.1987 9.44243C7.18276 9.43882 7.16663 9.43516 7.15028 9.43141C7.13879 9.42879 7.12745 9.42621 7.11578 9.42354C7.0936 9.41843 7.07096 9.41318 7.04795 9.40784C7.0419 9.40643 7.03609 9.40512 7.02995 9.40366C7.00168 9.39701 6.97262 9.39007 6.94309 9.38299C6.93339 9.38065 6.92349 9.37821 6.91365 9.37582C6.89148 9.37043 6.86898 9.3649 6.84615 9.35923C6.83593 9.3567 6.82576 9.35416 6.8154 9.35154C6.78624 9.34423 6.75662 9.33668 6.72634 9.3288C6.72273 9.32787 6.71926 9.32698 6.71565 9.32604C6.71453 9.32576 6.71349 9.32548 6.71237 9.3252L5.42068 14.1689C5.39335 14.2715 5.3004 14.3433 5.19423 14.3433C4.64738 14.3433 4.19434 14.7656 4.12524 15.2812H7.01373L8.82999 11.3888C8.82779 11.3814 8.82549 11.3733 8.82334 11.3659Z" fill="#5085A5"/>
<path d="M21.9906 13.7162C21.9623 13.6678 21.9328 13.6173 21.9025 13.5636C21.2905 12.4794 21.4375 11.8807 21.6811 10.8888C21.7066 10.7848 21.7333 10.6759 21.7606 10.5607L21.7644 10.5443C21.997 9.56009 22.2864 8.33516 21.9913 7.40595C21.6508 6.33847 20.7647 4.48869 18.6563 4.09662C18.2097 4.01412 17.6632 3.97048 17.0761 3.97048C16.512 3.97048 15.918 4.01169 15.4034 4.08645C15.2561 4.10778 15.1053 4.1322 14.9457 4.15808C14.5787 4.21761 14.1993 4.27911 13.8459 4.30358C13.743 4.31065 13.6507 4.31412 13.5636 4.31412C12.9918 4.31412 12.6991 4.15794 12.2849 3.90069C11.527 3.42922 10.6468 3.4542 9.75531 3.96265C8.73877 4.54194 8.16681 4.60644 6.7914 4.64305C6.6954 4.64572 6.60067 4.64886 6.50635 4.652C6.32912 4.65786 6.14588 4.66391 5.9604 4.66653L5.93448 4.66667C5.66968 4.66667 5.57415 4.59814 5.46015 4.44444C5.42303 4.39442 5.37685 4.33217 5.28113 4.24503C5.1811 4.15381 5.12462 4.11594 5.09546 4.10028C5.02257 4.19581 4.90759 4.51672 4.84328 4.69625C4.82209 4.75545 4.80578 4.80458 4.79213 4.84564C4.69759 5.1298 4.64363 5.18422 4.34781 5.29362C4.21904 5.34125 4.02446 5.4132 3.70384 5.56461C3.41532 5.7013 3.41532 5.7013 3.31904 5.92503C3.28974 5.99314 3.25328 6.07794 3.20228 6.18387C3.11068 6.37433 3.02242 6.42509 2.85924 6.46672C2.83867 6.47197 2.81471 6.47806 2.78635 6.48636C2.14426 6.67498 1.82232 6.85236 1.75806 6.92769C1.76054 7.00095 1.86657 7.26983 2.34803 7.78742L2.35131 7.79098C2.51617 7.9662 2.72092 7.98594 3.09854 8.00801C3.23673 8.01608 3.39334 8.02526 3.56312 8.04748C3.71148 8.06731 3.86603 8.08564 4.01551 8.1034C4.38592 8.14742 4.76898 8.19294 5.12078 8.26672C5.34081 8.31298 5.4976 8.38545 5.67915 8.46936C5.86206 8.55392 6.06938 8.64973 6.41588 8.75501C6.48292 8.77536 6.54765 8.79425 6.61032 8.81197C6.92368 8.90065 7.17906 8.95789 7.40434 9.00837C7.40537 9.00861 7.40635 9.00884 7.40743 9.00908C7.74343 9.08436 7.9877 9.13958 8.20168 9.2509C8.20271 9.25137 8.2037 9.25189 8.20473 9.2524C8.20646 9.2533 8.20824 9.25405 8.20993 9.25494C8.29684 9.30092 8.37498 9.35455 8.44707 9.4189C8.88634 9.70944 9.95734 10.3274 10.8629 10.1297C10.9893 10.1022 11.1143 10.1823 11.1419 10.3087C11.1694 10.4352 11.0893 10.5601 10.9629 10.5877C10.8084 10.6214 10.6514 10.6364 10.4948 10.6364C9.94271 10.6364 9.39207 10.4501 8.94517 10.2391C9.03109 10.4601 9.1194 10.7276 9.21859 11.0533C9.22674 11.0801 9.23499 11.1072 9.24329 11.1348C9.24882 11.1531 9.25435 11.1716 9.25993 11.1903C9.2746 11.2393 9.28946 11.2893 9.3047 11.3408C9.3354 11.4451 9.36727 11.5542 9.40065 11.6699C9.60142 12.3649 9.90929 13.9048 9.93479 14.7357C9.93737 14.8202 9.89429 14.8995 9.82196 14.9434L9.79234 14.9613C9.35157 15.2282 9.07407 15.3963 8.96485 15.7512L12.3751 15.7504C12.3954 15.6403 12.3976 15.5455 12.4005 15.4284C12.4084 15.0915 12.4184 14.6724 12.8439 13.5887L12.8784 13.5002C13.52 11.8564 13.6763 11.5459 13.7497 11.4552C13.7503 11.4544 13.751 11.4539 13.7516 11.4531C13.7521 11.4525 13.7524 11.4519 13.7529 11.4513C13.7627 11.4395 14.7594 10.2346 14.4363 9.0124C14.4032 8.88725 14.4779 8.759 14.603 8.7259C14.7283 8.69281 14.8564 8.76744 14.8895 8.89259C15.1881 10.0224 14.5877 11.082 14.2782 11.5303C14.3059 11.5485 14.3341 11.5674 14.3634 11.5871C14.5356 11.7027 14.7309 11.8336 14.9941 11.9392C15.0298 11.9533 15.086 11.9657 15.1404 11.9776C15.2507 12.0018 15.3649 12.0268 15.4599 12.0917C15.4719 12.0999 15.4831 12.1092 15.4935 12.1195C15.6015 12.2276 15.6059 12.3706 15.6105 12.522C15.6181 12.7708 15.6296 13.1467 16.0757 13.6077C16.1477 13.6819 16.3819 13.8249 16.5251 13.9027C16.6279 13.9585 16.6738 14.0815 16.6327 14.191C16.5238 14.4811 16.1502 15.446 15.9142 15.681C15.8938 15.7013 15.8702 15.7225 15.8451 15.745C15.8418 15.748 15.8383 15.7512 15.8345 15.7545L18.6177 15.7769C18.6346 15.7485 18.6503 15.7241 18.6646 15.702C18.7 15.6473 18.7199 15.6165 18.739 15.5514C18.7584 15.4642 18.776 15.3823 18.7925 15.3059C18.9048 14.7834 18.9839 14.418 19.2783 14.3394C19.7238 13.9551 19.3209 12.7404 19.1365 12.3296C19.0835 12.2114 19.1363 12.0727 19.2544 12.0198C19.3724 11.9667 19.5112 12.0196 19.5642 12.1377C19.6433 12.3139 20.2261 13.6723 19.7916 14.4423C19.8529 14.4751 19.9192 14.5145 19.9936 14.5628C20.0721 14.6135 20.1966 14.6707 20.317 14.726C20.4734 14.7978 20.6211 14.8657 20.7187 14.9405C20.7982 15.0015 20.8302 15.1062 20.7983 15.2013C20.7289 15.4075 20.6148 15.5639 20.5141 15.7021C20.5025 15.718 20.4909 15.7339 20.4796 15.7497L21.923 15.7511C22.0159 15.5653 22.1556 15.0644 22.2125 14.735C22.2979 14.2422 22.1951 14.0664 21.9906 13.7162ZM5.75813 6.37437C5.62871 6.37437 5.52353 6.26984 5.52353 6.14037C5.52353 6.01095 5.62824 5.90642 5.75767 5.90642H5.75813C5.8876 5.90642 5.99251 6.01095 5.99251 6.14037C5.99251 6.26984 5.8876 6.37437 5.75813 6.37437Z" fill="#5085A5"/>
<path d="M12.7881 18.5625H3.88184C3.75241 18.5625 3.64746 18.6674 3.64746 18.7969C3.64746 18.9263 3.75241 19.0312 3.88184 19.0312H12.7881C12.9176 19.0312 13.0225 18.9263 13.0225 18.7969C13.0225 18.6674 12.9175 18.5625 12.7881 18.5625Z" fill="#5085A5"/>
<path d="M17.4756 19.9688H13.7256C13.5961 19.9688 13.4912 20.0737 13.4912 20.2031C13.4912 20.3326 13.5961 20.4375 13.7256 20.4375H17.4756C17.6051 20.4375 17.71 20.3326 17.71 20.2031C17.71 20.0737 17.605 19.9688 17.4756 19.9688Z" fill="#5085A5"/>
</svg>
