<svg width="24" height="24" viewBox="0 0 24 24" fill="none" xmlns="http://www.w3.org/2000/svg">
<path d="M12 18V21" stroke="#5085A5" stroke-linecap="round" stroke-linejoin="round"/>
<path d="M7.875 14.0625C8.39277 14.0625 8.8125 13.6428 8.8125 13.125C8.8125 12.6072 8.39277 12.1875 7.875 12.1875C7.35723 12.1875 6.9375 12.6072 6.9375 13.125C6.9375 13.6428 7.35723 14.0625 7.875 14.0625Z" fill="#5085A5"/>
<path d="M16.125 14.0625C16.6428 14.0625 17.0625 13.6428 17.0625 13.125C17.0625 12.6072 16.6428 12.1875 16.125 12.1875C15.6072 12.1875 15.1875 12.6072 15.1875 13.125C15.1875 13.6428 15.6072 14.0625 16.125 14.0625Z" fill="#5085A5"/>
<path d="M12 4.5V8.25" stroke="#5085A5" stroke-linecap="round" stroke-linejoin="round"/>
<path d="M13.5 16.5L12 18L10.5 16.5" stroke="#5085A5" stroke-linecap="round" stroke-linejoin="round"/>
<path d="M9 4.96875V8.25" stroke="#5085A5" stroke-linecap="round" stroke-linejoin="round"/>
<path d="M15 4.96875V8.25" stroke="#5085A5" stroke-linecap="round" stroke-linejoin="round"/>
<path d="M3 12.7499V4.80929C3.00025 4.66058 3.0447 4.51529 3.12772 4.3919C3.21073 4.2685 3.32856 4.17258 3.46622 4.11631C3.60388 4.06004 3.75517 4.04596 3.90085 4.07587C4.04653 4.10579 4.18002 4.17833 4.28438 4.28429L6.3375 6.33742C7.97774 5.13086 9.96383 4.48637 12 4.49992C14.0362 4.48637 16.0223 5.13086 17.6625 6.33742V6.33742L19.7156 4.28429C19.82 4.17833 19.9535 4.10579 20.0992 4.07587C20.2448 4.04596 20.3961 4.06004 20.5338 4.11631C20.6714 4.17258 20.7893 4.2685 20.8723 4.3919C20.9553 4.51529 20.9998 4.66058 21 4.80929V12.7499C21 17.3062 16.9688 20.9999 12 20.9999C7.03125 20.9999 3 17.3062 3 12.7499Z" stroke="#5085A5" stroke-linecap="round" stroke-linejoin="round"/>
</svg>
