<svg width="24" height="24" viewBox="0 0 24 24" fill="none" xmlns="http://www.w3.org/2000/svg">
<path d="M12 23.25C9.77497 23.25 7.59989 22.5902 5.74984 21.354C3.89979 20.1179 2.45785 18.3609 1.60636 16.3052C0.754875 14.2495 0.532087 11.9875 0.966171 9.80524C1.40025 7.62295 2.47171 5.61839 4.04505 4.04505C5.61839 2.47171 7.62295 1.40025 9.80524 0.966171C11.9875 0.532087 14.2495 0.754875 16.3052 1.60636C18.3609 2.45785 20.1179 3.89979 21.354 5.74984C22.5902 7.59989 23.25 9.77497 23.25 12C23.25 14.9837 22.0647 17.8452 19.955 19.955C17.8452 22.0647 14.9837 23.25 12 23.25ZM12 2.25001C10.0716 2.25001 8.18657 2.82183 6.5832 3.89318C4.97982 4.96452 3.73013 6.48726 2.99218 8.26884C2.25423 10.0504 2.06114 12.0108 2.43735 13.9021C2.81355 15.7935 3.74215 17.5307 5.10571 18.8943C6.46928 20.2579 8.20656 21.1865 10.0979 21.5627C11.9892 21.9389 13.9496 21.7458 15.7312 21.0078C17.5127 20.2699 19.0355 19.0202 20.1068 17.4168C21.1782 15.8134 21.75 13.9284 21.75 12C21.75 9.41414 20.7228 6.93419 18.8943 5.10571C17.0658 3.27723 14.5859 2.25001 12 2.25001V2.25001Z" fill="#5085A5"/>
<path d="M10.2526 16.5C10.1498 16.4997 10.0481 16.4782 9.95392 16.4369C9.85973 16.3956 9.77504 16.3354 9.70511 16.26L6.20261 12.51C6.08294 12.3624 6.02374 12.1749 6.03698 11.9854C6.05022 11.7958 6.13492 11.6184 6.27395 11.4889C6.41299 11.3593 6.596 11.2874 6.78601 11.2876C6.97603 11.2879 7.15887 11.3602 7.29761 11.49L10.2526 14.6475L16.7026 7.74003C16.7674 7.66016 16.8479 7.59446 16.9391 7.54702C17.0303 7.49957 17.1303 7.47139 17.2329 7.46423C17.3355 7.45706 17.4384 7.47106 17.5353 7.50536C17.6323 7.53966 17.7211 7.59353 17.7964 7.66361C17.8716 7.7337 17.9316 7.8185 17.9727 7.91276C18.0138 8.00702 18.035 8.10872 18.0352 8.21155C18.0353 8.31437 18.0142 8.41612 17.9734 8.51047C17.9325 8.60483 17.8727 8.68977 17.7976 8.76003L10.8001 16.26C10.7302 16.3354 10.6455 16.3956 10.5513 16.4369C10.4571 16.4782 10.3554 16.4997 10.2526 16.5Z" fill="#5085A5"/>
</svg>
