<svg width="23" height="23" viewBox="0 0 23 23" fill="none" xmlns="http://www.w3.org/2000/svg">
<path fill-rule="evenodd" clip-rule="evenodd" d="M11.5 23C17.8513 23 23 17.8513 23 11.5C23 5.14873 17.8513 0 11.5 0C5.14873 0 0 5.14873 0 11.5C0 17.8513 5.14873 23 11.5 23ZM9.50548 15.3089C9.59574 15.3485 9.69317 15.3691 9.79173 15.3694C9.89028 15.3691 9.98771 15.3485 10.078 15.3089C10.1682 15.2694 10.2494 15.2116 10.3164 15.1394L17.0224 7.95189C17.0943 7.88456 17.1516 7.80316 17.1908 7.71273C17.23 7.62231 17.2501 7.5248 17.25 7.42626C17.2499 7.32772 17.2295 7.23026 17.1901 7.13993C17.1508 7.0496 17.0933 6.96832 17.0212 6.90116C16.9491 6.83399 16.8639 6.78237 16.771 6.7495C16.6781 6.71663 16.5795 6.70321 16.4812 6.71008C16.3829 6.71695 16.287 6.74396 16.1996 6.78942C16.1122 6.83489 16.035 6.89785 15.973 6.97439L9.79173 13.5941L6.95985 10.5681C6.82689 10.4437 6.65167 10.3744 6.46957 10.3742C6.28748 10.374 6.11209 10.4429 5.97885 10.567C5.84561 10.6911 5.76444 10.8612 5.75175 11.0429C5.73906 11.2245 5.79579 11.4042 5.91048 11.5456L9.26704 15.1394C9.33405 15.2116 9.41522 15.2694 9.50548 15.3089Z" fill="#5085A5"/>
</svg>
