<svg width="24" height="24" viewBox="0 0 24 24" fill="none" xmlns="http://www.w3.org/2000/svg">
<path d="M19.8259 8.25095C19.8516 8.22845 19.877 8.20525 19.9014 8.18073L20.922 7.16017C21.5259 6.55628 21.5259 5.57715 20.922 4.97326L19.0267 3.07792C18.4228 2.47403 17.4436 2.47403 16.8398 3.07792L15.8192 4.09848C15.7947 4.123 15.7715 4.14836 15.749 4.17409L19.8259 8.25095Z" fill="#5085A5"/>
<path d="M5.35861 18.6414L7.37423 20.657L4.99959 21.016L2.625 21.375L2.98397 19.0003L3.34294 16.6257L5.35861 18.6414Z" fill="#5085A5"/>
<path d="M16.3662 5.88461L5.5774 16.6733L4.99422 16.0901L15.783 5.30143L15.1998 4.71826L3.82788 16.0901L7.91013 20.1724L19.2821 8.80047L16.3662 5.88461Z" fill="#5085A5"/>
</svg>
