<svg width="24" height="22" viewBox="0 0 24 22" fill="none" xmlns="http://www.w3.org/2000/svg">
<path d="M23.1404 11.411C22.8922 12.0725 22.2772 12.5 21.5729 12.5H20.9999V20.75C20.9999 21.164 20.6639 21.5 20.2499 21.5H15.7499V16.25C15.7499 14.1823 14.0677 12.5 11.9999 12.5C9.93218 12.5 8.24993 14.1823 8.24993 16.25V21.5H3.74993C3.33593 21.5 2.99993 21.164 2.99993 20.75V12.5H2.42618C1.72193 12.5 1.10693 12.0733 0.858678 11.4118C0.610428 10.7503 0.792678 10.0228 1.32368 9.55929L10.0829 1.26429C11.1584 0.246539 12.8422 0.246539 13.9169 1.26429L22.6972 9.57879C23.2057 10.022 23.3887 10.7495 23.1404 11.411Z" fill="#5085A5"/>
</svg>
