<svg width="18" height="22" viewBox="0 0 18 22" fill="none" xmlns="http://www.w3.org/2000/svg">
<g clip-path="url(#clip0_37_513)">
<path d="M13.2 13.7H13.7V13.2V11V10.5H13.2H4.4H3.9V11V13.2V13.7H4.4H13.2ZM11 18.1H11.5V17.6V15.4V14.9H11H4.4H3.9V15.4V17.6V18.1H4.4H11ZM9.4 7.7V8.2H9.9H15.95H17.1V19.8C17.1 20.7339 16.3339 21.5 15.4 21.5H2.2C1.26614 21.5 0.5 20.7339 0.5 19.8V2.2C0.5 1.26614 1.26614 0.5 2.2 0.5H9.4V1.65V7.7ZM17.1 8.14289L16.3036 7.34645L10.2536 1.29645L9.45711 0.5H10.7929L13.9464 3.65355L17.1 6.80711V8.14289Z" stroke="#5085A5"/>
</g>
<defs>
<clipPath id="clip0_37_513">
<rect width="17.6" height="22" fill="white"/>
</clipPath>
</defs>
</svg>
