<svg width="26" height="22" viewBox="0 0 26 22" fill="none" xmlns="http://www.w3.org/2000/svg">
<path d="M6.51602 0.883736L6.51603 0.883745L6.51851 0.881314C6.76786 0.636902 7.1031 0.5 7.45226 0.5C7.80065 0.5 8.13519 0.636301 8.38436 0.879704L13.8842 6.37959L13.8857 6.38103C14.0107 6.50504 14.11 6.65257 14.1777 6.81512C14.2454 6.97768 14.2803 7.15203 14.2803 7.32812C14.2803 7.50422 14.2454 7.67857 14.1777 7.84112C14.11 8.00367 14.0107 8.15121 13.8857 8.27521L13.8828 8.27811C13.7588 8.40314 13.6113 8.50238 13.4487 8.5701C13.2862 8.63782 13.1118 8.67269 12.9357 8.67269C12.7596 8.67269 12.5853 8.63782 12.4227 8.5701C12.2602 8.50238 12.1126 8.40314 11.9886 8.27811L11.9885 8.27803L9.62276 5.89392L8.76785 5.03238V6.2461V16.4978C8.76785 16.8516 8.62731 17.1908 8.37715 17.441C8.12699 17.6912 7.7877 17.8317 7.43392 17.8317C7.08014 17.8317 6.74085 17.6912 6.49069 17.441C6.24053 17.1908 6.09999 16.8516 6.09999 16.4978V6.15441V4.97328L5.25196 5.79542L2.84951 8.12451L2.83721 8.13643L2.82577 8.14916C2.70305 8.2856 2.55351 8.39526 2.38649 8.47128C2.21946 8.54729 2.03855 8.58803 1.85506 8.59094C1.67157 8.59384 1.48946 8.55886 1.32011 8.48817C1.15076 8.41749 0.997818 8.31262 0.870847 8.18013C0.743877 8.04764 0.64561 7.89037 0.58219 7.71817C0.518771 7.54597 0.491565 7.36253 0.502273 7.17933C0.512982 6.99613 0.561375 6.81712 0.644425 6.65348C0.727476 6.48984 0.843399 6.34509 0.984943 6.2283L1.0001 6.21579L1.01423 6.20213L6.51602 0.883736Z" stroke="#5085A5"/>
<path d="M19.2682 21.1163L19.2682 21.1163L19.2657 21.1187C19.0163 21.3631 18.6811 21.5 18.3319 21.5C17.9835 21.5 17.649 21.3637 17.3998 21.1203L11.8999 15.6204L11.8985 15.619C11.7735 15.495 11.6742 15.3474 11.6065 15.1849C11.5388 15.0223 11.5039 14.848 11.5039 14.6719C11.5039 14.4958 11.5388 14.3214 11.6065 14.1589C11.6742 13.9963 11.7735 13.8488 11.8985 13.7248L11.9014 13.7219C12.0254 13.5969 12.1729 13.4976 12.3355 13.4299C12.498 13.3622 12.6724 13.3273 12.8485 13.3273C13.0246 13.3273 13.1989 13.3622 13.3615 13.4299C13.524 13.4976 13.6716 13.5969 13.7956 13.7219L13.7956 13.722L16.1614 16.1061L17.0163 16.9676V15.7539V5.50223C17.0163 5.14845 17.1569 4.80915 17.407 4.55899C17.6572 4.30883 17.9965 4.16829 18.3503 4.16829C18.704 4.16829 19.0433 4.30883 19.2935 4.55899C19.5437 4.80915 19.6842 5.14845 19.6842 5.50223V15.8456V17.0267L20.5322 16.2046L22.9347 13.8755L22.947 13.8636L22.9584 13.8508C23.0811 13.7144 23.2307 13.6047 23.3977 13.5287C23.5647 13.4527 23.7456 13.412 23.9291 13.4091C24.1126 13.4062 24.2947 13.4411 24.4641 13.5118C24.6334 13.5825 24.7864 13.6874 24.9133 13.8199C25.0403 13.9524 25.1386 14.1096 25.202 14.2818C25.2654 14.454 25.2926 14.6375 25.2819 14.8207C25.2712 15.0039 25.2228 15.1829 25.1398 15.3465C25.0567 15.5102 24.9408 15.6549 24.7992 15.7717L24.7841 15.7842L24.77 15.7979L19.2682 21.1163Z" stroke="#5085A5"/>
</svg>
