<svg width="24" height="24" viewBox="0 0 24 24" fill="none" xmlns="http://www.w3.org/2000/svg">
<mask id="path-1-inside-1_107_972" fill="white">
<path d="M23.6213 10.8467C23.6395 9.70921 22.6828 8.8179 21.5701 8.89034C20.5154 8.9595 19.7128 9.87033 19.7744 10.924C18.5547 10.3569 17.1184 10.1863 15.6644 10.4589C15.1664 10.5522 14.6484 10.6045 14.1248 10.6142L13.3302 10.629C13.1954 10.6316 13.0608 10.6347 12.9264 10.6379C12.2712 10.6532 11.6522 10.6678 11.0403 10.6097C10.3813 10.547 9.72319 10.3423 9.12546 10.0161C9.20828 9.75303 9.32334 9.56518 9.45619 9.49279C12.006 8.10342 13.5634 6.13002 13.9598 3.78594C13.9878 3.62099 13.928 3.4632 13.8 3.36394C13.6594 3.25498 13.4134 3.17002 12.6542 3.36637C12.2734 3.46489 11.8592 3.61101 11.6628 3.6985C11.5208 3.76175 11.3836 3.82862 11.2491 3.89743C11.2591 3.81207 11.2647 3.73208 11.2696 3.66049C11.2728 3.61215 11.2758 3.56709 11.2803 3.5256C11.2968 3.37035 11.246 3.25995 11.1997 3.19362C10.9995 2.90944 10.5698 2.98426 10.1759 3.0951C9.83587 3.19069 9.46598 3.33845 9.25026 3.44253C8.32154 3.89032 7.81264 4.69012 7.592 5.12698C7.41071 5.48573 7.24914 6.02166 6.92745 7.08895C6.85064 7.34243 6.77209 7.52943 6.6451 7.80641C6.53202 8.05284 6.1203 8.42909 5.87209 8.62166C4.87028 8.77806 3.93148 9.28875 3.23652 10.0688L2.27138 11.1519C1.86359 11.4294 1.62158 11.8846 1.62158 12.379C1.62158 12.4813 1.6502 13.0541 1.78549 13.3074C1.89126 13.508 2.04786 13.6827 2.24003 13.8138L2.39912 13.9208C2.69537 14.1217 2.99834 14.2728 3.32535 14.3828L3.37593 14.3997H3.37732C3.67149 14.4936 3.98424 14.5541 4.33033 14.5843C4.40163 14.5908 4.47849 14.5961 4.57308 14.6008C4.68179 14.6059 4.79511 14.6085 4.91952 14.6085C5.01764 14.6085 5.1176 14.6057 5.21612 14.6002C5.28866 14.5963 5.36135 14.5907 5.43403 14.5838C6.47325 14.9418 7.12757 15.5379 7.54808 16.5106C7.79083 17.0718 7.91394 17.6834 7.91394 18.3285V20.0882C7.19111 20.3 6.66149 20.9687 6.66149 21.7591V22.082H9.20962L10.4765 19.2915C10.7917 19.4188 11.1162 19.5247 11.4432 19.6068C12.1399 19.7821 12.8761 19.8523 13.6331 19.8182C13.7215 19.8955 13.8132 19.9687 13.9084 20.0365H11.9655C11.0136 20.0365 10.2421 20.808 10.2421 21.7598V22.0823H16.1044C16.2828 22.0823 16.4273 21.9378 16.4273 21.7595V21.7594C16.4273 21.581 16.2828 21.4365 16.1044 21.4365H10.9374C11.075 20.9998 11.4838 20.6823 11.9655 20.6823H15.6076C15.7869 20.6823 15.9323 20.5369 15.9323 20.3576V20.3445C15.9323 20.176 15.8032 20.0384 15.6356 20.021C15.5373 20.0107 15.4396 19.9953 15.3432 19.9749C14.8619 19.8744 14.4113 19.6469 14.0389 19.3157L14.0204 19.2996C13.6955 19.0049 13.4396 18.6354 13.2802 18.2302C13.22 18.078 13.1728 17.9189 13.14 17.7575C13.1369 17.7422 13.1339 17.7271 13.1306 17.7083C13.0988 17.5386 13.0827 17.3631 13.0827 17.1868C13.0827 15.7137 14.2062 14.4981 15.6414 14.3519C15.8057 14.3352 15.9323 14.2003 15.9323 14.0352V14.0252C15.9323 13.8369 15.7696 13.69 15.5822 13.7087C13.8185 13.8849 12.4368 15.3775 12.4368 17.1868C12.4368 17.4028 12.4566 17.6182 12.495 17.8235C12.4986 17.8437 12.5025 17.8638 12.5071 17.8863C12.5475 18.0848 12.6055 18.2804 12.6795 18.4672C12.7778 18.7171 12.9062 18.9559 13.0601 19.1776C12.5578 19.1632 12.0689 19.0982 11.6007 18.9803C11.2576 18.8942 10.9176 18.7794 10.59 18.6391L10.5854 18.6372C10.3758 18.5485 10.1327 18.6158 9.99858 18.7997L9.97722 18.829L8.79363 21.4361H7.35601C7.49418 20.9893 7.91121 20.6636 8.40282 20.6636H8.6171C8.79546 20.6636 8.94004 20.5191 8.94004 20.3407C8.94004 20.1624 8.79546 20.0178 8.6171 20.0178H8.55987V18.3285C8.55987 17.5946 8.41892 16.8968 8.14095 16.2542C7.77821 15.4152 7.25023 14.8008 6.51394 14.3683C6.77104 14.2892 7.02209 14.1916 7.26375 14.0758L7.30747 14.0549C7.46829 13.9779 7.53626 13.7851 7.4593 13.6242C7.38229 13.4633 7.18942 13.3953 7.02855 13.4723L6.98433 13.4935C6.66462 13.6467 6.32604 13.7647 5.97846 13.844C5.71593 13.9034 5.44775 13.9409 5.18095 13.9552C5.09381 13.9601 5.00587 13.9625 4.91957 13.9625C4.80555 13.9625 4.70226 13.9602 4.60468 13.9555C4.52002 13.9513 4.45156 13.9466 4.38791 13.9408C4.07168 13.9133 3.79152 13.8575 3.53138 13.7704L3.51275 13.7642C3.25644 13.6762 3.01697 13.5564 2.78123 13.3989C2.95626 13.2792 3.10218 13.1169 3.20109 12.9239C3.35784 12.6181 3.38611 12.2705 3.28074 11.9452C3.21063 11.7289 3.08583 11.5409 2.92073 11.3938L3.71874 10.4983C4.421 9.70996 5.41158 9.24309 6.43554 9.2174C6.47032 9.21661 6.50509 9.21626 6.54032 9.21626H7.00912C7.38651 9.24155 7.73121 8.9991 7.83301 8.63403C8.11104 7.63754 9.32419 5.44693 11.9256 4.28818C12.2555 4.14127 12.9396 3.93524 13.2821 3.89733C12.8592 5.9694 11.4691 7.66015 9.14712 8.92537C8.54039 9.256 8.38996 10.1738 8.35428 10.6915C8.35031 10.7489 8.35041 10.8235 8.35354 10.902C8.36149 11.1021 8.54646 11.2476 8.7425 11.2066C8.89677 11.1743 9.00542 11.0352 8.99891 10.8777C8.99663 10.8223 8.99623 10.7709 8.99867 10.7359C8.99996 10.7172 9.00175 10.699 9.00329 10.6806C9.62661 10.9916 10.302 11.1881 10.9792 11.2525C11.6292 11.3143 12.2964 11.2987 12.9416 11.2834C13.075 11.2803 13.2085 11.2771 13.3422 11.2747L14.1369 11.2599C14.6963 11.2494 15.2502 11.1935 15.7835 11.0935C17.5681 10.7592 19.3158 11.1546 20.5787 12.179C21.68 13.0723 22.3048 14.3792 22.3381 15.8589C22.3391 15.9006 22.3396 15.9424 22.3396 15.9842C22.3396 18.8888 20.0562 21.2702 17.1902 21.4277C17.0201 21.437 16.8877 21.5793 16.8877 21.7497C16.8877 21.9351 17.0438 22.0826 17.2289 22.0724C20.4331 21.8948 22.9854 19.2319 22.9854 15.9841C22.9854 15.9374 22.9848 15.8908 22.9838 15.8443C22.9576 14.6772 22.6036 13.604 21.9671 12.7171C22.4608 12.6477 22.9047 12.3931 23.2172 11.9922C23.472 11.6655 23.6147 11.2611 23.6213 10.8467ZM2.45784 11.8473C2.55497 11.9223 2.62761 12.0247 2.66641 12.1445C2.71848 12.3052 2.70427 12.4775 2.62641 12.6295C2.56133 12.7564 2.45551 12.8561 2.32956 12.9158C2.29776 12.7761 2.26756 12.5306 2.26756 12.379C2.26756 12.1815 2.33612 11.9951 2.45784 11.8473ZM7.21098 8.46059C7.19121 8.53143 7.12329 8.57799 7.04952 8.57173L6.8804 8.57133C7.02388 8.41428 7.15589 8.24183 7.23215 8.07559C7.36823 7.77879 7.4585 7.56346 7.5457 7.27565C7.84682 6.27663 8.01271 5.72625 8.16847 5.41807C8.31647 5.12514 8.74543 4.40275 9.53087 4.02407C9.8779 3.85669 10.3606 3.69646 10.6227 3.65244C10.6053 3.90463 10.5766 4.1844 10.3586 4.42322C8.42394 5.73241 7.46546 7.54846 7.21098 8.46059ZM20.4195 10.8954C20.3759 10.2295 20.8524 9.64775 21.4996 9.54759C21.6901 9.73028 21.8068 9.97834 21.8243 10.2447C21.8428 10.5278 21.75 10.8012 21.5628 11.0145C21.3757 11.2279 21.1166 11.3555 20.8332 11.3741C20.7354 11.3806 20.6377 11.3728 20.5418 11.3525C20.5392 11.3507 20.5366 11.3491 20.5339 11.3473C20.4687 11.2059 20.43 11.0544 20.4195 10.8954ZM22.6582 11.6552C22.4329 11.9121 22.1209 12.0659 21.7795 12.0882C21.6537 12.0966 21.5285 12.0853 21.4066 12.0572C21.3673 12.0179 21.3272 11.9792 21.2866 11.941C21.5787 11.8478 21.841 11.6768 22.0484 11.4404C22.3494 11.0974 22.4986 10.6578 22.4688 10.2025C22.4579 10.0367 22.4226 9.87555 22.3663 9.72292C22.7068 9.93328 22.9447 10.2992 22.9729 10.7281C22.9952 11.0692 22.8834 11.3984 22.6582 11.6552Z"/>
</mask>
<path d="M23.6213 10.8467C23.6395 9.70921 22.6828 8.8179 21.5701 8.89034C20.5154 8.9595 19.7128 9.87033 19.7744 10.924C18.5547 10.3569 17.1184 10.1863 15.6644 10.4589C15.1664 10.5522 14.6484 10.6045 14.1248 10.6142L13.3302 10.629C13.1954 10.6316 13.0608 10.6347 12.9264 10.6379C12.2712 10.6532 11.6522 10.6678 11.0403 10.6097C10.3813 10.547 9.72319 10.3423 9.12546 10.0161C9.20828 9.75303 9.32334 9.56518 9.45619 9.49279C12.006 8.10342 13.5634 6.13002 13.9598 3.78594C13.9878 3.62099 13.928 3.4632 13.8 3.36394C13.6594 3.25498 13.4134 3.17002 12.6542 3.36637C12.2734 3.46489 11.8592 3.61101 11.6628 3.6985C11.5208 3.76175 11.3836 3.82862 11.2491 3.89743C11.2591 3.81207 11.2647 3.73208 11.2696 3.66049C11.2728 3.61215 11.2758 3.56709 11.2803 3.5256C11.2968 3.37035 11.246 3.25995 11.1997 3.19362C10.9995 2.90944 10.5698 2.98426 10.1759 3.0951C9.83587 3.19069 9.46598 3.33845 9.25026 3.44253C8.32154 3.89032 7.81264 4.69012 7.592 5.12698C7.41071 5.48573 7.24914 6.02166 6.92745 7.08895C6.85064 7.34243 6.77209 7.52943 6.6451 7.80641C6.53202 8.05284 6.1203 8.42909 5.87209 8.62166C4.87028 8.77806 3.93148 9.28875 3.23652 10.0688L2.27138 11.1519C1.86359 11.4294 1.62158 11.8846 1.62158 12.379C1.62158 12.4813 1.6502 13.0541 1.78549 13.3074C1.89126 13.508 2.04786 13.6827 2.24003 13.8138L2.39912 13.9208C2.69537 14.1217 2.99834 14.2728 3.32535 14.3828L3.37593 14.3997H3.37732C3.67149 14.4936 3.98424 14.5541 4.33033 14.5843C4.40163 14.5908 4.47849 14.5961 4.57308 14.6008C4.68179 14.6059 4.79511 14.6085 4.91952 14.6085C5.01764 14.6085 5.1176 14.6057 5.21612 14.6002C5.28866 14.5963 5.36135 14.5907 5.43403 14.5838C6.47325 14.9418 7.12757 15.5379 7.54808 16.5106C7.79083 17.0718 7.91394 17.6834 7.91394 18.3285V20.0882C7.19111 20.3 6.66149 20.9687 6.66149 21.7591V22.082H9.20962L10.4765 19.2915C10.7917 19.4188 11.1162 19.5247 11.4432 19.6068C12.1399 19.7821 12.8761 19.8523 13.6331 19.8182C13.7215 19.8955 13.8132 19.9687 13.9084 20.0365H11.9655C11.0136 20.0365 10.2421 20.808 10.2421 21.7598V22.0823H16.1044C16.2828 22.0823 16.4273 21.9378 16.4273 21.7595V21.7594C16.4273 21.581 16.2828 21.4365 16.1044 21.4365H10.9374C11.075 20.9998 11.4838 20.6823 11.9655 20.6823H15.6076C15.7869 20.6823 15.9323 20.5369 15.9323 20.3576V20.3445C15.9323 20.176 15.8032 20.0384 15.6356 20.021C15.5373 20.0107 15.4396 19.9953 15.3432 19.9749C14.8619 19.8744 14.4113 19.6469 14.0389 19.3157L14.0204 19.2996C13.6955 19.0049 13.4396 18.6354 13.2802 18.2302C13.22 18.078 13.1728 17.9189 13.14 17.7575C13.1369 17.7422 13.1339 17.7271 13.1306 17.7083C13.0988 17.5386 13.0827 17.3631 13.0827 17.1868C13.0827 15.7137 14.2062 14.4981 15.6414 14.3519C15.8057 14.3352 15.9323 14.2003 15.9323 14.0352V14.0252C15.9323 13.8369 15.7696 13.69 15.5822 13.7087C13.8185 13.8849 12.4368 15.3775 12.4368 17.1868C12.4368 17.4028 12.4566 17.6182 12.495 17.8235C12.4986 17.8437 12.5025 17.8638 12.5071 17.8863C12.5475 18.0848 12.6055 18.2804 12.6795 18.4672C12.7778 18.7171 12.9062 18.9559 13.0601 19.1776C12.5578 19.1632 12.0689 19.0982 11.6007 18.9803C11.2576 18.8942 10.9176 18.7794 10.59 18.6391L10.5854 18.6372C10.3758 18.5485 10.1327 18.6158 9.99858 18.7997L9.97722 18.829L8.79363 21.4361H7.35601C7.49418 20.9893 7.91121 20.6636 8.40282 20.6636H8.6171C8.79546 20.6636 8.94004 20.5191 8.94004 20.3407C8.94004 20.1624 8.79546 20.0178 8.6171 20.0178H8.55987V18.3285C8.55987 17.5946 8.41892 16.8968 8.14095 16.2542C7.77821 15.4152 7.25023 14.8008 6.51394 14.3683C6.77104 14.2892 7.02209 14.1916 7.26375 14.0758L7.30747 14.0549C7.46829 13.9779 7.53626 13.7851 7.4593 13.6242C7.38229 13.4633 7.18942 13.3953 7.02855 13.4723L6.98433 13.4935C6.66462 13.6467 6.32604 13.7647 5.97846 13.844C5.71593 13.9034 5.44775 13.9409 5.18095 13.9552C5.09381 13.9601 5.00587 13.9625 4.91957 13.9625C4.80555 13.9625 4.70226 13.9602 4.60468 13.9555C4.52002 13.9513 4.45156 13.9466 4.38791 13.9408C4.07168 13.9133 3.79152 13.8575 3.53138 13.7704L3.51275 13.7642C3.25644 13.6762 3.01697 13.5564 2.78123 13.3989C2.95626 13.2792 3.10218 13.1169 3.20109 12.9239C3.35784 12.6181 3.38611 12.2705 3.28074 11.9452C3.21063 11.7289 3.08583 11.5409 2.92073 11.3938L3.71874 10.4983C4.421 9.70996 5.41158 9.24309 6.43554 9.2174C6.47032 9.21661 6.50509 9.21626 6.54032 9.21626H7.00912C7.38651 9.24155 7.73121 8.9991 7.83301 8.63403C8.11104 7.63754 9.32419 5.44693 11.9256 4.28818C12.2555 4.14127 12.9396 3.93524 13.2821 3.89733C12.8592 5.9694 11.4691 7.66015 9.14712 8.92537C8.54039 9.256 8.38996 10.1738 8.35428 10.6915C8.35031 10.7489 8.35041 10.8235 8.35354 10.902C8.36149 11.1021 8.54646 11.2476 8.7425 11.2066C8.89677 11.1743 9.00542 11.0352 8.99891 10.8777C8.99663 10.8223 8.99623 10.7709 8.99867 10.7359C8.99996 10.7172 9.00175 10.699 9.00329 10.6806C9.62661 10.9916 10.302 11.1881 10.9792 11.2525C11.6292 11.3143 12.2964 11.2987 12.9416 11.2834C13.075 11.2803 13.2085 11.2771 13.3422 11.2747L14.1369 11.2599C14.6963 11.2494 15.2502 11.1935 15.7835 11.0935C17.5681 10.7592 19.3158 11.1546 20.5787 12.179C21.68 13.0723 22.3048 14.3792 22.3381 15.8589C22.3391 15.9006 22.3396 15.9424 22.3396 15.9842C22.3396 18.8888 20.0562 21.2702 17.1902 21.4277C17.0201 21.437 16.8877 21.5793 16.8877 21.7497C16.8877 21.9351 17.0438 22.0826 17.2289 22.0724C20.4331 21.8948 22.9854 19.2319 22.9854 15.9841C22.9854 15.9374 22.9848 15.8908 22.9838 15.8443C22.9576 14.6772 22.6036 13.604 21.9671 12.7171C22.4608 12.6477 22.9047 12.3931 23.2172 11.9922C23.472 11.6655 23.6147 11.2611 23.6213 10.8467ZM2.45784 11.8473C2.55497 11.9223 2.62761 12.0247 2.66641 12.1445C2.71848 12.3052 2.70427 12.4775 2.62641 12.6295C2.56133 12.7564 2.45551 12.8561 2.32956 12.9158C2.29776 12.7761 2.26756 12.5306 2.26756 12.379C2.26756 12.1815 2.33612 11.9951 2.45784 11.8473ZM7.21098 8.46059C7.19121 8.53143 7.12329 8.57799 7.04952 8.57173L6.8804 8.57133C7.02388 8.41428 7.15589 8.24183 7.23215 8.07559C7.36823 7.77879 7.4585 7.56346 7.5457 7.27565C7.84682 6.27663 8.01271 5.72625 8.16847 5.41807C8.31647 5.12514 8.74543 4.40275 9.53087 4.02407C9.8779 3.85669 10.3606 3.69646 10.6227 3.65244C10.6053 3.90463 10.5766 4.1844 10.3586 4.42322C8.42394 5.73241 7.46546 7.54846 7.21098 8.46059ZM20.4195 10.8954C20.3759 10.2295 20.8524 9.64775 21.4996 9.54759C21.6901 9.73028 21.8068 9.97834 21.8243 10.2447C21.8428 10.5278 21.75 10.8012 21.5628 11.0145C21.3757 11.2279 21.1166 11.3555 20.8332 11.3741C20.7354 11.3806 20.6377 11.3728 20.5418 11.3525C20.5392 11.3507 20.5366 11.3491 20.5339 11.3473C20.4687 11.2059 20.43 11.0544 20.4195 10.8954ZM22.6582 11.6552C22.4329 11.9121 22.1209 12.0659 21.7795 12.0882C21.6537 12.0966 21.5285 12.0853 21.4066 12.0572C21.3673 12.0179 21.3272 11.9792 21.2866 11.941C21.5787 11.8478 21.841 11.6768 22.0484 11.4404C22.3494 11.0974 22.4986 10.6578 22.4688 10.2025C22.4579 10.0367 22.4226 9.87555 22.3663 9.72292C22.7068 9.93328 22.9447 10.2992 22.9729 10.7281C22.9952 11.0692 22.8834 11.3984 22.6582 11.6552Z" fill="#5085A5" stroke="#5085A5" stroke-width="2" mask="url(#path-1-inside-1_107_972)"/>
<path d="M4.50268 10.4674C4.36153 10.5105 4.28224 10.6595 4.32556 10.8001C4.36888 10.9406 4.51843 11.0197 4.65958 10.9765C4.80073 10.9334 4.88007 10.7844 4.8367 10.6438C4.79342 10.5032 4.64388 10.4242 4.50268 10.4674Z" fill="#5085A5"/>
</svg>
