<svg width="24" height="24" viewBox="0 0 24 24" fill="none" xmlns="http://www.w3.org/2000/svg">
<path d="M10.0382 6.81658C10.042 6.81682 10.0459 6.8173 10.0495 6.81754C10.0444 6.92842 10.0389 7.0393 10.0343 7.15042C10.0324 7.19458 10.03 7.23922 10.0327 7.28338C10.0353 7.33042 10.0586 7.37002 10.103 7.38682C10.1649 7.4101 10.2292 7.42786 10.2933 7.44514C10.336 7.4569 10.3761 7.43002 10.3936 7.38178C10.409 7.34002 10.426 7.29874 10.4378 7.25626C10.7071 6.28258 10.9535 5.30338 11.0973 4.3021C11.1556 3.89554 11.1959 3.48682 11.1871 3.07426C11.1823 2.8621 11.1563 2.6533 11.1129 2.4469C11.0925 2.34994 11.0527 2.25706 11.0212 2.16226C11.0176 2.15194 11.0102 2.14306 11.0054 2.13298C10.9763 2.07034 10.9394 2.0365 10.9147 2.0533C10.889 2.07082 10.8611 2.09074 10.846 2.11666C10.7272 2.31946 10.6559 2.5417 10.5911 2.76562C10.4678 3.19282 10.385 3.62866 10.3192 4.06786C10.2566 4.48498 10.2002 4.90306 10.1659 5.32378C10.1253 5.82154 10.0809 6.31906 10.0382 6.81658V6.81658ZM9.1785 22.2649C9.25698 22.2649 9.32322 22.2654 9.38946 22.2642C9.40002 22.2642 9.41418 22.2603 9.4197 22.2529C9.42522 22.2455 9.42738 22.2251 9.42258 22.2215C9.37962 22.1893 9.33714 22.1552 9.29034 22.1293C8.53338 21.7103 7.94994 21.116 7.51122 20.3744C7.4661 20.2981 7.4241 20.2199 7.3785 20.1438C7.36146 20.1159 7.3425 20.0859 7.31682 20.067C7.17786 19.9626 7.02354 19.9093 6.84882 19.9523C6.5925 20.0151 6.41778 20.1771 6.32226 20.4186C6.1881 20.7572 6.2313 21.0932 6.36114 21.4232C6.39018 21.4969 6.4413 21.5583 6.50562 21.6027C6.59658 21.6656 6.68802 21.7316 6.7881 21.7763C6.92946 21.8391 7.07658 21.8915 7.2249 21.9349C7.8669 22.1223 8.5281 22.1975 9.1785 22.2649V22.2649ZM8.7429 8.38066C8.77026 8.33074 8.79402 8.30434 8.79954 8.2741C8.81826 8.17618 8.83458 8.0773 8.84442 7.97794C8.87682 7.6573 8.90538 7.33618 8.93658 7.01554C8.99034 6.4621 9.0381 5.90842 9.0597 5.35282C9.06474 5.21962 9.0741 5.08642 9.0813 4.95322C9.12378 4.18642 9.13026 3.41986 9.04842 2.65474C9.0261 2.4445 8.9913 2.23618 8.92098 2.03578C8.90274 1.98394 8.87538 1.93546 8.84922 1.88674C8.82858 1.84786 8.7681 1.83298 8.7345 1.8601C8.69178 1.89466 8.64522 1.92778 8.61354 1.97122C8.53434 2.08042 8.48946 2.20714 8.45322 2.33578C8.38362 2.5825 8.33922 2.83474 8.3217 3.08986C8.27322 3.80098 8.2893 4.51234 8.33898 5.22274C8.36322 5.56642 8.40762 5.90842 8.43906 6.25162C8.4933 6.83842 8.58786 7.41994 8.67042 8.00314C8.68722 8.12242 8.71554 8.24002 8.7429 8.38066ZM12.5627 22.3993C12.8188 22.3991 13.0727 22.3724 13.3274 22.3439C14.1832 22.2479 15.0098 22.0364 15.8092 21.7199C16.1923 21.5682 16.5607 21.3853 16.9084 21.1631C17.1434 21.0128 17.3637 20.8443 17.5615 20.6473C17.6961 20.5131 17.8171 20.3677 17.9087 20.2011C17.9459 20.1337 17.9743 20.0603 17.9975 19.9866C18.0263 19.8956 17.9882 19.7991 17.9083 19.7567C17.8399 19.7204 17.7695 19.6825 17.6956 19.6643C17.5665 19.6323 17.4347 19.6043 17.3027 19.5937C16.9139 19.563 16.5239 19.5697 16.1366 19.6105C15.3172 19.6967 14.5106 19.8548 13.7138 20.0629C13.3365 20.1615 12.9712 20.295 12.6232 20.4721C12.3645 20.6036 12.1211 20.7587 11.9063 20.9552C11.7659 21.0836 11.6411 21.2252 11.549 21.3925C11.4952 21.4902 11.4542 21.5927 11.441 21.7055C11.4117 21.9555 11.4998 22.1391 11.7194 22.2623C11.8667 22.3448 12.0263 22.3928 12.196 22.3986C12.3182 22.4029 12.4406 22.3993 12.5627 22.3993V22.3993ZM16.9269 18.9195C17.0145 18.6284 17.0368 18.3495 17.0587 18.0735C17.1285 17.1942 17.098 16.3158 16.9982 15.4398C16.9742 15.2291 16.9231 15.0234 16.852 14.8237C16.8074 14.6977 16.7505 14.5765 16.6485 14.4831C16.6012 14.4397 16.5107 14.4311 16.4644 14.4721C16.4229 14.5088 16.3881 14.5535 16.3449 14.588C16.1735 14.7243 15.9211 14.6358 15.8702 14.4212C15.8445 14.313 15.826 14.2028 15.8063 14.0934C15.6467 13.2111 15.3616 12.3709 14.9567 11.5717C14.6738 11.013 14.3323 10.4931 13.9113 10.0273C13.6567 9.7453 13.3768 9.49162 13.0591 9.28162C12.8349 9.13354 12.5978 9.01234 12.3383 8.93818C11.926 8.8201 11.5247 8.83666 11.1391 9.03922C11.08 9.07018 11.02 9.09922 10.9591 9.1261C10.9007 9.15178 10.8148 9.1261 10.7824 9.07066C10.7152 8.95546 10.6509 8.83834 10.5866 8.72146C10.4956 8.55562 10.4131 8.38474 10.3142 8.22346C10.1116 7.89322 9.76026 7.7437 9.36666 7.80946C9.35562 7.81114 9.34242 7.81258 9.33522 7.8193C9.31194 7.84138 9.28458 7.8625 9.2709 7.8901C9.25674 7.9189 9.25626 7.95466 9.2505 7.9873C9.16026 8.4913 9.07122 8.9953 8.9793 9.49882C8.96754 9.56362 8.94642 9.6277 8.92218 9.68938C8.89986 9.74602 8.8497 9.7705 8.78946 9.7717C8.7321 9.7729 8.67402 9.73858 8.65602 9.68962C8.63298 9.62722 8.60874 9.56458 8.59362 9.49978C8.52042 9.18562 8.44962 8.87074 8.37906 8.5561C8.35722 8.45938 8.3433 8.3605 8.2809 8.26642C8.24106 8.28442 8.19738 8.29642 8.16282 8.32114C8.06322 8.39266 7.96458 8.46562 7.87074 8.5441C7.00722 9.26722 6.63906 9.76978 6.23586 10.8159C6.0789 11.2235 5.98026 11.6451 5.9313 12.0781C5.89842 12.3673 5.9073 12.656 5.97426 12.9414C6.00498 13.0724 6.04986 13.1975 6.11946 13.3127C6.22938 13.4953 6.39066 13.6059 6.60042 13.6393C6.95034 13.695 7.2897 13.6619 7.6077 13.4958C7.71594 13.4391 7.82298 13.3777 7.9209 13.305C8.32746 13.0031 8.67138 12.6385 8.92746 12.2019C9.31074 11.5484 9.74874 10.9304 10.1486 10.2877C10.1716 10.2505 10.205 10.2198 10.2352 10.1874C10.2571 10.1639 10.3257 10.1617 10.3612 10.1809C10.4123 10.2083 10.4438 10.2769 10.4203 10.3206C10.3571 10.4382 10.2909 10.5541 10.2263 10.6707C9.74634 11.5374 9.25866 12.3997 8.7597 13.2555C8.68122 13.3902 8.60706 13.5272 8.5341 13.6647C8.50914 13.7125 8.4945 13.7658 8.47506 13.8164C8.49642 13.8243 8.50722 13.8325 8.5173 13.8315C8.57178 13.826 8.62674 13.8215 8.6805 13.8111C9.02778 13.7444 9.36666 13.7653 9.6957 13.9031C9.86274 13.9729 10.0123 14.0677 10.1275 14.2081C10.169 14.2585 10.2004 14.3195 10.2254 14.3802C10.2487 14.4373 10.2187 14.4884 10.1774 14.5299C10.1378 14.5695 10.0651 14.5782 10.0243 14.5479C9.9885 14.5218 9.95106 14.4963 9.92082 14.4647C9.72306 14.258 9.47322 14.1836 9.19698 14.175C8.81082 14.1632 8.47722 14.2969 8.18802 14.547C8.02602 14.6867 7.89978 14.8559 7.79418 15.0409C7.67202 15.2547 7.58394 15.483 7.51962 15.7201C7.42026 16.0871 7.37538 16.4619 7.35978 16.8414C7.32978 17.5806 7.38786 18.3099 7.58562 19.0247C7.77162 19.6979 8.06874 20.3161 8.51274 20.859C9.01842 21.4772 9.64242 21.9253 10.4097 22.166C10.6442 22.2397 10.8878 22.2678 11.1271 22.3163C11.1386 22.3187 11.1698 22.2894 11.1681 22.2781C11.164 22.2459 11.1494 22.2147 11.1352 22.185C10.9917 21.8823 11.0145 21.579 11.1376 21.2787C11.2271 21.0603 11.3649 20.8712 11.5257 20.6989C11.74 20.4692 11.9867 20.2803 12.2534 20.1159C12.6155 19.8932 13.0022 19.7247 13.4047 19.5899C13.7637 19.4694 14.1297 19.3739 14.4979 19.2863C15.137 19.1343 15.7811 19.01 16.439 18.9666C16.5928 18.9565 16.7491 18.9553 16.9269 18.9195V18.9195ZM9.68058 7.3357C9.6849 7.2793 9.69498 7.22482 9.69258 7.17082C9.65802 6.41362 9.6981 5.65738 9.7149 4.9009C9.7233 4.52146 9.76986 4.1461 9.80898 3.77026C9.84546 3.4165 9.90138 3.06418 9.98562 2.71762C10.0516 2.4469 10.1284 2.18026 10.2439 1.92586C10.3132 1.77298 10.396 1.62874 10.504 1.49986C10.576 1.41418 10.6574 1.33882 10.7555 1.28338C10.8611 1.22338 10.9665 1.22002 11.0733 1.27978C11.2015 1.35178 11.3054 1.45114 11.3956 1.5661C11.5713 1.7905 11.6661 2.0497 11.7213 2.3257C11.7916 2.67778 11.8005 3.0337 11.7691 3.38986C11.7292 3.84466 11.656 4.29442 11.5552 4.7401C11.3534 5.63146 11.0721 6.49858 10.7695 7.35946C10.7363 7.45378 10.702 7.54762 10.6648 7.65082C10.6859 7.68586 10.703 7.72786 10.7313 7.7593C10.9413 7.9921 11.0488 8.26522 11.0623 8.57746C11.0632 8.59786 11.0776 8.61778 11.0858 8.63818C11.1424 8.66098 11.1943 8.63746 11.2435 8.6161C11.549 8.48386 11.8687 8.46994 12.1939 8.49706C12.3616 8.51098 12.5222 8.55514 12.6811 8.60674C13.0123 8.71426 13.3139 8.87914 13.5976 9.07882C13.9358 9.3169 14.2384 9.5953 14.5132 9.90418C15.2107 10.6883 15.7115 11.5871 16.0591 12.5735C16.1771 12.9095 16.2722 13.2524 16.342 13.6021C16.3569 13.6772 16.3648 13.7567 16.4378 13.8239C16.4697 13.827 16.5131 13.8339 16.5568 13.8354C16.811 13.8433 16.9977 13.9722 17.1477 14.1651C17.2653 14.3166 17.3414 14.4899 17.3951 14.672C17.4739 14.9399 17.5281 15.2132 17.5351 15.4926C17.5451 15.9042 17.5511 16.316 17.5511 16.7276C17.5509 17.3864 17.4813 18.0383 17.3399 18.6819C17.3351 18.7038 17.3337 18.7263 17.3284 18.7477C17.2888 18.9157 17.2989 18.9603 17.4928 18.9841C17.6248 19.0004 17.7573 19.0254 17.8843 19.0645C17.9999 19.1 18.1156 19.148 18.2191 19.2109C18.5906 19.4375 18.6957 19.7778 18.5762 20.1908C18.5327 20.3413 18.454 20.4769 18.3657 20.6063C18.1879 20.8659 17.9683 21.0853 17.7215 21.2787C17.4225 21.5137 17.0973 21.7055 16.7553 21.8703C16.1203 22.1759 15.4528 22.3842 14.7645 22.5284C13.9766 22.6933 13.1805 22.761 12.3755 22.7331C12.1178 22.7243 11.8651 22.6995 11.6159 22.6139C11.4283 22.6808 11.2291 22.7024 11.0301 22.7183C10.2974 22.7761 9.56394 22.8203 8.82882 22.7905C8.30562 22.7694 7.78506 22.724 7.27386 22.6016C7.0461 22.5469 6.8241 22.4749 6.61098 22.3782C6.4485 22.3045 6.29514 22.214 6.1581 22.0979C5.9565 21.9267 5.82546 21.716 5.76882 21.4539C5.69946 21.1328 5.68626 20.8151 5.77698 20.4966C5.85186 20.2333 5.98386 20.0048 6.19458 19.827C6.37818 19.6717 6.58818 19.5774 6.83274 19.5721C6.89946 19.5704 6.96618 19.5719 7.0329 19.5711C7.06482 19.5707 7.09746 19.5342 7.0893 19.5073C7.06386 19.4221 7.03746 19.3371 7.0113 19.2522C6.77034 18.4664 6.68418 17.6643 6.75186 16.8447C6.78018 16.5001 6.82434 16.1593 6.90978 15.8238C6.97866 15.5531 7.0725 15.2917 7.19754 15.0426C7.3437 14.7512 7.52466 14.4812 7.77954 14.2772C7.94778 14.1423 8.02674 13.9693 8.08506 13.7761C8.08698 13.7696 8.07618 13.7567 8.06826 13.7504C8.0613 13.7449 8.04762 13.7394 8.04138 13.7425C7.9725 13.7778 7.90338 13.8128 7.83618 13.8512C7.45746 14.0691 7.05018 14.1505 6.61602 14.1121C6.17034 14.0727 5.8413 13.8591 5.62962 13.4651C5.46282 13.1547 5.39682 12.8178 5.38074 12.47C5.3577 11.9646 5.43498 11.4716 5.57274 10.9866C5.6949 10.5565 5.86698 10.148 6.09306 9.76162C6.27426 9.45178 6.49434 9.1741 6.75114 8.92426C7.11234 8.57338 7.5129 8.27506 7.94946 8.0245C8.0169 7.98562 8.08506 7.94794 8.15154 7.90762C8.19162 7.88314 8.21706 7.84642 8.2101 7.79722C8.1957 7.6981 8.18154 7.59898 8.16234 7.50082C8.02818 6.81274 7.91586 6.12154 7.83018 5.4253C7.74594 4.73938 7.69722 4.05226 7.7085 3.36082C7.71474 2.96986 7.7529 2.58346 7.8465 2.20354C7.88922 2.02978 7.95162 1.86394 8.03922 1.70746C8.10522 1.58962 8.1873 1.48522 8.28978 1.39738C8.43906 1.26946 8.61138 1.20418 8.8089 1.20034C8.99946 1.1965 9.15498 1.26778 9.28314 1.40578C9.39162 1.52242 9.4605 1.66186 9.50946 1.81066C9.58266 2.03314 9.62922 2.26234 9.64914 2.49586C9.69474 3.0289 9.71778 3.56218 9.6741 4.09666C9.6669 4.18522 9.66306 4.2745 9.6609 4.36354C9.6489 4.85362 9.59394 5.3401 9.53754 5.82658C9.48354 6.29074 9.42594 6.75442 9.37122 7.21834C9.36594 7.26178 9.3645 7.3069 9.37002 7.34986C9.37218 7.36546 9.39858 7.3885 9.41538 7.3897C9.50538 7.39714 9.5901 7.37506 9.68058 7.3357" fill="#5085A5"/>
<path d="M7.87441 10.1226C7.85161 10.311 7.83145 10.4761 7.81129 10.6414C7.79665 10.7626 7.78369 10.8841 7.76641 11.005C7.76041 11.0482 7.74433 11.09 7.73161 11.132C7.72489 11.1538 7.66105 11.1728 7.64353 11.1594C7.62601 11.1462 7.60369 11.1363 7.59217 11.119C7.41049 10.845 7.30225 10.5445 7.28545 10.2157C7.28041 10.1175 7.29721 10.0165 7.31617 9.91927C7.33609 9.81775 7.39777 9.73879 7.48249 9.67831C7.62337 9.57751 7.81729 9.64639 7.84633 9.81415C7.86505 9.92263 7.86697 10.034 7.87441 10.1226Z" fill="#5085A5"/>
</svg>
