<svg width="26" height="22" viewBox="0 0 26 22" fill="none" xmlns="http://www.w3.org/2000/svg">
<path d="M8.73601 0.524242C8.39319 0.188217 7.93229 0 7.45226 0C6.97222 0 6.51132 0.188217 6.16851 0.524242L0.666715 5.84264C0.472117 6.00321 0.312742 6.20221 0.198561 6.42719C0.0843797 6.65217 0.0178481 6.89829 0.00312535 7.15016C-0.0115974 7.40202 0.0258068 7.65421 0.112998 7.89096C0.200188 8.12771 0.335289 8.34393 0.509853 8.52608C0.684418 8.70823 0.89469 8.85241 1.12752 8.94959C1.36034 9.04677 1.61072 9.09487 1.86298 9.09087C2.11524 9.08688 2.36397 9.03087 2.5936 8.92637C2.82323 8.82186 3.02883 8.67109 3.19754 8.4835L5.59999 6.15441V16.4978C5.59999 16.9842 5.7932 17.4506 6.13713 17.7946C6.48106 18.1385 6.94753 18.3317 7.43392 18.3317C7.92031 18.3317 8.38677 18.1385 8.7307 17.7946C9.07463 17.4506 9.26785 16.9842 9.26785 16.4978V6.2461L11.6336 8.63021C11.8041 8.80211 12.0069 8.93854 12.2304 9.03165C12.4539 9.12475 12.6936 9.17269 12.9357 9.17269C13.1778 9.17269 13.4175 9.12475 13.641 9.03165C13.8645 8.93854 14.0673 8.80211 14.2378 8.63021C14.4097 8.45973 14.5461 8.25689 14.6392 8.03341C14.7323 7.80993 14.7803 7.57022 14.7803 7.32812C14.7803 7.08602 14.7323 6.84632 14.6392 6.62284C14.5461 6.39936 14.4097 6.19652 14.2378 6.02603L8.73601 0.524242Z" fill="#5085A5"/>
<path d="M17.0482 21.4758C17.391 21.8118 17.8519 22 18.3319 22C18.812 22 19.2729 21.8118 19.6157 21.4758L25.1175 16.1574C25.3121 15.9968 25.4714 15.7978 25.5856 15.5728C25.6998 15.3478 25.7663 15.1017 25.7811 14.8498C25.7958 14.598 25.7584 14.3458 25.6712 14.109C25.584 13.8723 25.4489 13.6561 25.2743 13.4739C25.0998 13.2918 24.8895 13.1476 24.6567 13.0504C24.4238 12.9532 24.1735 12.9051 23.9212 12.9091C23.6689 12.9131 23.4202 12.9691 23.1906 13.0736C22.9609 13.1781 22.7553 13.3289 22.5866 13.5165L20.1842 15.8456V5.50223C20.1842 5.01584 19.991 4.54937 19.647 4.20544C19.3031 3.86151 18.8367 3.66829 18.3503 3.66829C17.8639 3.66829 17.3974 3.86151 17.0535 4.20544C16.7095 4.54937 16.5163 5.01584 16.5163 5.50223V15.7539L14.1506 13.3698C13.9801 13.1979 13.7772 13.0615 13.5538 12.9684C13.3303 12.8752 13.0906 12.8273 12.8485 12.8273C12.6064 12.8273 12.3667 12.8752 12.1432 12.9684C11.9197 13.0615 11.7169 13.1979 11.5464 13.3698C11.3745 13.5403 11.2381 13.7431 11.1449 13.9666C11.0518 14.1901 11.0039 14.4298 11.0039 14.6719C11.0039 14.914 11.0518 15.1537 11.1449 15.3772C11.2381 15.6006 11.3745 15.8035 11.5464 15.974L17.0482 21.4758Z" fill="#5085A5"/>
</svg>
