<svg width="36" height="16" viewBox="0 0 36 16" fill="none" xmlns="http://www.w3.org/2000/svg">
<path d="M4.19903 0.279478L18 5.64236L31.801 0.279478C32.2635 0.100474 32.8893 0 33.5415 0C34.1938 0 34.8195 0.100474 35.2821 0.279478V0.279478C35.7419 0.45955 36 0.70314 36 0.957047C36 1.21095 35.7419 1.45454 35.2821 1.63462L19.5801 7.74715C19.1595 7.90914 18.5917 8 18 8C17.4083 8 16.8405 7.90914 16.4199 7.74715L0.717928 1.63462C0.258099 1.45454 0 1.21095 0 0.957047C0 0.70314 0.258099 0.45955 0.717928 0.279478V0.279478C1.1805 0.100474 1.80624 0 2.45848 0C3.11072 0 3.73646 0.100474 4.19903 0.279478Z" fill="url(#paint0_linear_158_1091)"/>
<path d="M4.19903 8.27948L18 13.6424L31.801 8.27948C32.2635 8.10047 32.8893 8 33.5415 8C34.1938 8 34.8195 8.10047 35.2821 8.27948V8.27948C35.7419 8.45955 36 8.70314 36 8.95705C36 9.21095 35.7419 9.45454 35.2821 9.63462L19.5801 15.7472C19.1595 15.9091 18.5917 16 18 16C17.4083 16 16.8405 15.9091 16.4199 15.7472L0.717928 9.63462C0.258099 9.45454 0 9.21095 0 8.95705C0 8.70314 0.258099 8.45955 0.717928 8.27948V8.27948C1.1805 8.10047 1.80624 8 2.45848 8C3.11072 8 3.73646 8.10047 4.19903 8.27948Z" fill="url(#paint1_linear_158_1091)"/>
<defs>
<linearGradient id="paint0_linear_158_1091" x1="18" y1="0" x2="18" y2="8" gradientUnits="userSpaceOnUse">
<stop stop-color="#3DAEC2"/>
<stop offset="1" stop-color="#D3F0F8"/>
</linearGradient>
<linearGradient id="paint1_linear_158_1091" x1="18" y1="8" x2="18" y2="16" gradientUnits="userSpaceOnUse">
<stop stop-color="#3DAEC2"/>
<stop offset="1" stop-color="#D3F0F8"/>
</linearGradient>
</defs>
</svg>
