<svg width="24" height="24" viewBox="0 0 24 24" fill="none" xmlns="http://www.w3.org/2000/svg">
<g clip-path="url(#clip0_37_503)">
<path d="M23.376 1.25002C22.5074 1.2509 21.6702 1.57424 21.0265 2.15734C20.3828 2.74045 19.9785 3.54179 19.892 4.40602C19.5632 4.30274 19.2206 4.25013 18.876 4.25002C17.9477 4.25002 17.0575 4.61877 16.4011 5.27514C15.7447 5.93152 15.376 6.82176 15.376 7.75002C15.376 7.88262 15.4287 8.0098 15.5224 8.10357C15.6162 8.19734 15.7434 8.25002 15.876 8.25002H18.376C18.9064 8.25002 19.4151 8.46073 19.7902 8.8358C20.1653 9.21088 20.376 9.71958 20.376 10.25C20.376 10.7804 20.1653 11.2892 19.7902 11.6642C19.4151 12.0393 18.9064 12.25 18.376 12.25H6.87599C4.7657 12.2794 2.68244 12.7292 0.747995 13.573C0.618374 13.62 0.500907 13.6955 0.404188 13.7937C0.307469 13.892 0.233945 14.0107 0.188995 14.141C0.0944143 14.3952 0.103391 14.6764 0.213995 14.924C0.432845 15.3869 0.677909 15.837 0.947995 16.272C1.95699 19.872 3.91699 23.645 9.46599 23.645C10.6243 23.6454 11.778 23.4979 12.899 23.206C12.4952 22.6426 12.1636 22.0309 11.912 21.385C9.49099 21.915 6.64199 21.791 4.87499 19.84C4.05377 18.8576 3.44894 17.713 3.09999 16.481C5.00554 16.6575 6.82271 17.3677 8.34299 18.53C9.38191 19.2289 10.4825 19.8314 11.631 20.33C11.6509 20.1557 11.7312 19.9939 11.8581 19.8727C11.985 19.7515 12.1503 19.6786 12.3253 19.6667C12.5004 19.6548 12.674 19.7047 12.8161 19.8076C12.9582 19.9105 13.0597 20.06 13.103 20.23C13.4447 21.4769 14.1755 22.5823 15.189 23.385C15.7874 23.7631 16.4756 23.9753 17.183 24C17.2594 24.0049 17.3358 23.9901 17.4049 23.957C17.474 23.9239 17.5334 23.8737 17.5775 23.8111C17.6217 23.7485 17.649 23.6756 17.657 23.5995C17.6649 23.5233 17.6532 23.4464 17.623 23.376L16.481 20.713C16.4025 20.5301 16.3998 20.3236 16.4736 20.1388C16.5474 19.954 16.6916 19.806 16.8745 19.7275C17.0574 19.649 17.2639 19.6464 17.4487 19.7202C17.6336 19.794 17.7815 19.9381 17.86 20.121L18.16 20.812C18.167 20.8 19.723 19.612 19.723 19.612C20.9794 18.4923 21.9957 17.1294 22.7102 15.6056C23.4247 14.0819 23.8227 12.429 23.88 10.747V1.74702C23.8796 1.68127 23.8662 1.61625 23.8407 1.55567C23.8151 1.49509 23.7779 1.44015 23.7311 1.39398C23.6843 1.34782 23.6288 1.31134 23.5679 1.28664C23.5069 1.26193 23.4417 1.24949 23.376 1.25002ZM9.87599 16.5C9.67821 16.5 9.48487 16.4414 9.32042 16.3315C9.15597 16.2216 9.0278 16.0654 8.95212 15.8827C8.87643 15.7 8.85662 15.4989 8.89521 15.3049C8.93379 15.1109 9.02903 14.9328 9.16889 14.7929C9.30874 14.6531 9.48692 14.5578 9.6809 14.5192C9.87489 14.4806 10.076 14.5004 10.2587 14.5761C10.4414 14.6518 10.5976 14.78 10.7075 14.9444C10.8173 15.1089 10.876 15.3022 10.876 15.5C10.876 15.7652 10.7706 16.0196 10.5831 16.2071C10.3956 16.3947 10.1412 16.5 9.87599 16.5Z" fill="#5085A5"/>
<path d="M3.12598 4.49995C3.39119 4.49995 3.64555 4.3946 3.83308 4.20706C4.02062 4.01952 4.12598 3.76517 4.12598 3.49995C4.12598 3.10213 4.28401 2.7206 4.56532 2.43929C4.84662 2.15799 5.22815 1.99995 5.62598 1.99995C6.0238 1.99995 6.40533 2.15799 6.68664 2.43929C6.96794 2.7206 7.12598 3.10213 7.12598 3.49995V9.49995C7.12598 9.76517 7.23133 10.0195 7.41887 10.2071C7.60641 10.3946 7.86076 10.5 8.12598 10.5C8.39119 10.5 8.64555 10.3946 8.83308 10.2071C9.02062 10.0195 9.12598 9.76517 9.12598 9.49995V3.49995C9.12598 3.10213 9.28401 2.7206 9.56532 2.43929C9.84662 2.15799 10.2282 1.99995 10.626 1.99995C11.0238 1.99995 11.4053 2.15799 11.6866 2.43929C11.9679 2.7206 12.126 3.10213 12.126 3.49995C12.126 3.76517 12.2313 4.01952 12.4189 4.20706C12.6064 4.3946 12.8608 4.49995 13.126 4.49995C13.3912 4.49995 13.6455 4.3946 13.8331 4.20706C14.0206 4.01952 14.126 3.76517 14.126 3.49995C14.1255 2.80489 13.918 2.12571 13.5301 1.54898C13.1422 0.972248 12.5913 0.524083 11.9477 0.261602C11.3041 -0.000878781 10.5969 -0.065788 9.9163 0.0751472C9.23567 0.216082 8.61242 0.556479 8.12598 1.05295C7.63953 0.556479 7.01628 0.216082 6.33565 0.0751472C5.65503 -0.065788 4.94785 -0.000878781 4.30425 0.261602C3.66065 0.524083 3.10978 0.972248 2.72184 1.54898C2.33391 2.12571 2.12647 2.80489 2.12598 3.49995C2.12598 3.76517 2.23133 4.01952 2.41887 4.20706C2.51173 4.29992 2.62197 4.37358 2.74329 4.42383C2.86462 4.47409 2.99465 4.49995 3.12598 4.49995V4.49995Z" fill="#5085A5"/>
</g>
<defs>
<clipPath id="clip0_37_503">
<rect width="24" height="24" fill="white"/>
</clipPath>
</defs>
</svg>
